<?xml version="1.0" encoding="utf-8"?>
<!-- Generator: Adobe Illustrator 26.0.0, SVG Export Plug-In . SVG Version: 6.00 Build 0)  -->
<svg version="1.1" id="Layer_1" xmlns="http://www.w3.org/2000/svg" xmlns:xlink="http://www.w3.org/1999/xlink" x="0px" y="0px"
	 viewBox="0 0 296 270.6" style="enable-background:new 0 0 296 270.6;" xml:space="preserve">
<style type="text/css">
	.st0{fill:#E6E6E6;enable-background:new    ;}
	.st1{fill:#D8D9DA;}
	.st2{fill:#FFFFFF;}
</style>
<path class="st0" d="M169.8,270.4c2.6-0.4,5.2-1.1,7.7-2.3l114.9-71.2c2.5-2.2,3.8-5.4,3.5-8.8L278.7,27.5c-0.3-2.7-1.7-5.1-3.7-6.8
	L144.4,80.9L169.8,270.4z"/>
<path class="st1" d="M144.4,80.9L275,20.8c-1.4-1.2-3.1-1.9-5-2.2l-126.7-18c-10.2-1.5-20.7,0.1-30,4.4L5.9,54c-1.7,0.8-3,1.9-4,3.4
	L144.4,80.9z"/>
<path class="st2" d="M144.4,80.9L1.9,57.3c-1.1,1.5-1.7,3.3-1.9,5.2l25.1,161.9c0.8,2.1,2.2,3.8,4.1,5l133.7,41
	c2.3,0.3,4.6,0.3,6.9,0L144.4,80.9z"/>
<g>
	<g>
		<path d="M179.1,36.7l-22.3-3.4c3.6-1.7,5.8-2.7,6.7-3.2c0.8-0.5,1.2-0.9,1.1-1.3c-0.1-0.4-0.9-0.7-2.2-0.9c-1.1-0.2-2.4-0.2-3.7,0
			s-2.5,0.5-3.6,0.9s-3,1.3-5.9,2.7l-12.4,5.7c3.2-0.8,6.4-1.3,9.6-1.4c3.2-0.1,6.4,0,9.6,0.5c4.1,0.6,6.7,1.6,7.9,3s0.9,2.8-1,4.2
			s-5.1,3.2-9.7,5.4l-6.3,2.9c-5.5,2.6-9.9,4.5-13.1,5.7c-3.2,1.2-7,2.1-11.3,2.9c-4.4,0.7-9,1.1-13.8,1.1s-9.6-0.4-14.3-1.2
			c-5.8-1-9.8-2.1-12.1-3.4c-2.2-1.3-3-2.7-2.2-4.3c0.7-1.6,2.4-3.1,5.1-4.5s8.3-4.1,16.9-8.1l10.7-5c9.2-4.3,15.5-7.1,18.9-8.4
			c3.4-1.4,7.5-2.5,12.5-3.5c4.9-0.9,10-1.5,15.2-1.5c5.2-0.1,10.3,0.3,15.3,1c6.2,0.9,10.5,2.1,12.8,3.5s2.7,3,1.3,4.8
			C187.1,32.4,184,34.4,179.1,36.7z M132.4,44.6c2.8-1.3,4.3-2.2,4.7-2.8c0.3-0.6-0.3-1-1.8-1.3c-1.5-0.2-3.1-0.2-4.8,0.2
			c-1.7,0.3-4,1.2-6.8,2.5l-14.2,6.6c-3.5,1.6-5.4,2.7-5.8,3.3s0.2,1,1.7,1.3c0.9,0.2,2.3,0.1,4.2-0.1c1.8-0.2,4.6-1.2,8.2-2.9
			L132.4,44.6z"/>
	</g>
</g>
<g>
	<g>
		<path d="M238.6,131.5c3-0.1,5.4,1,7.2,3.4c1.7,2.4,3.3,9.3,4.6,20.8c1,8.5,1,15.4,0.2,20.8c-0.8,5.4-2.7,10.3-5.8,14.7
			s-7.2,8.1-12.5,11.3c-6.1,3.6-11,5-14.9,4.2s-6.7-3-8.3-6.6s-3.1-10.6-4.4-21.1l-1.1-8.7l19.7-10.8l2.1,17.7
			c0.6,4.7,1.1,7.6,1.6,8.6s1.5,1.2,2.9,0.4c1.5-0.9,2.4-2.2,2.7-4.1c0.3-1.9,0-6.2-0.7-12.9l-0.9-7.5c-0.5-4.2-1.2-7-2.1-8.6
			c-0.9-1.6-2-2.3-3.4-2.2s-4,1.1-7.8,3.1l-1.9-16c4.7-2.5,7.5-4.2,8.5-5.3s1.7-2.6,2-4.5c0.3-1.9,0.2-4.7-0.2-8.2l-0.7-6.1
			c-0.4-3.9-1-6.3-1.7-7.2c-0.7-0.9-1.7-1.1-2.8-0.5c-1.4,0.7-2.2,1.8-2.6,3.4c-0.3,1.6-0.3,4.5,0.2,8.7l1.1,9.1l-19.9,10.4
			l-1.2-9.6c-1.3-10.7-0.4-18.9,2.7-24.4c3.1-5.5,8.4-10.1,16-13.8c9.3-4.6,15.8-5.1,19.7-1.6c3.8,3.5,6.2,9.7,7.2,18.7
			c0.7,6.1,0.6,10.7-0.2,14C243,124.2,241.3,127.8,238.6,131.5z"/>
	</g>
</g>
<g>
	<g>
		<path d="M89.2,112.5l15.7,109.9l-21.5-5.9L75,158.9c-1.2-8.4-2.1-13.5-2.7-15.2c-0.6-1.8-1.6-3.2-3.2-4.4
			c-1.5-1.2-4.7-2.3-9.5-3.3l-2.1-0.4L55.6,123c9.7-0.8,16.6-5,20.7-12.9L89.2,112.5z"/>
	</g>
</g>
</svg>
