<?xml version="1.0" encoding="utf-8"?>
<!-- Generator: Adobe Illustrator 26.0.0, SVG Export Plug-In . SVG Version: 6.00 Build 0)  -->
<svg version="1.1" id="Layer_1" xmlns="http://www.w3.org/2000/svg" xmlns:xlink="http://www.w3.org/1999/xlink" x="0px" y="0px"
	 viewBox="0 0 296 270.6" style="enable-background:new 0 0 296 270.6;" xml:space="preserve">
<style type="text/css">
	.st0{fill:#E6E6E6;enable-background:new    ;}
	.st1{fill:#D8D9DA;}
	.st2{fill:#FFFFFF;}
	.st3{fill:url(#SVGID_1_);}
	.st4{fill:url(#SVGID_00000164484743500890018020000007215358890453644989_);}
	.st5{fill:url(#SVGID_00000132795670974655065140000014591052243002029199_);}
</style>
<path class="st0" d="M169.8,270.4c2.6-0.4,5.2-1.1,7.7-2.3l114.9-71.2c2.5-2.2,3.8-5.4,3.5-8.8L278.7,27.5c-0.3-2.7-1.7-5.1-3.7-6.8
	L144.4,80.9L169.8,270.4z"/>
<path class="st1" d="M144.4,80.9L275,20.8c-1.4-1.2-3.1-1.9-5-2.2l-126.7-18c-10.2-1.5-20.7,0.1-30,4.4L5.9,54c-1.7,0.8-3,1.9-4,3.4
	L144.4,80.9z"/>
<path class="st2" d="M144.4,80.9L1.9,57.3c-1.1,1.5-1.7,3.3-1.9,5.2l25.1,161.9c0.8,2.1,2.2,3.8,4.1,5l133.7,41
	c2.3,0.3,4.6,0.3,6.9,0L144.4,80.9z"/>
<radialGradient id="SVGID_1_" cx="16.8979" cy="197.3931" r="14.7457" fx="12.0137" fy="197.0458" gradientTransform="matrix(0.9768 -0.2142 -0.3371 -1.537 131.6657 467.6884)" gradientUnits="userSpaceOnUse">
	<stop  offset="1.380234e-03" style="stop-color:#ED1C24"/>
	<stop  offset="0.2147" style="stop-color:#E81C24"/>
	<stop  offset="0.3682" style="stop-color:#DE1B23"/>
	<stop  offset="0.5031" style="stop-color:#D01A22"/>
	<stop  offset="0.6272" style="stop-color:#BD171F"/>
	<stop  offset="0.7438" style="stop-color:#A5121A"/>
	<stop  offset="0.8549" style="stop-color:#880812"/>
	<stop  offset="0.9598" style="stop-color:#6A0004"/>
	<stop  offset="1" style="stop-color:#5E0000"/>
</radialGradient>
<path class="st3" d="M86.5,162.9c1.3,10-2.4,17.2-8.4,16.2s-12-9.9-13.3-19.8c-1.3-10,2.4-17.2,8.5-16.2
	C79.2,144.1,85.2,152.9,86.5,162.9z"/>
<radialGradient id="SVGID_00000086671716735432496740000015225178555424123283_" cx="199.9138" cy="224.4852" r="16.1236" fx="192.7" fy="223.9188" gradientTransform="matrix(0.9834 -0.1816 -0.2441 -1.322 112.5319 435.1334)" gradientUnits="userSpaceOnUse">
	<stop  offset="1.380234e-03" style="stop-color:#ED1C24"/>
	<stop  offset="0.2147" style="stop-color:#E81C24"/>
	<stop  offset="0.3682" style="stop-color:#DE1B23"/>
	<stop  offset="0.5031" style="stop-color:#D01A22"/>
	<stop  offset="0.6272" style="stop-color:#BD171F"/>
	<stop  offset="0.7438" style="stop-color:#A5121A"/>
	<stop  offset="0.8549" style="stop-color:#880812"/>
	<stop  offset="0.9598" style="stop-color:#6A0004"/>
	<stop  offset="1" style="stop-color:#5E0000"/>
</radialGradient>
<path style="fill:url(#SVGID_00000086671716735432496740000015225178555424123283_);" d="M260.3,98.7c1.3,9.8-2.9,18.4-9.3,19.3
	c-6.5,0.9-12.8-6.3-14.1-16.1s2.9-18.4,9.3-19.3C252.6,81.7,258.9,88.9,260.3,98.7z"/>
<radialGradient id="SVGID_00000012449016876383790220000014339501936595308161_" cx="181.6997" cy="170.8104" r="15.1322" gradientTransform="matrix(0.9912 -0.1325 -0.1982 -1.4828 74.6633 459.7357)" gradientUnits="userSpaceOnUse">
	<stop  offset="1.380234e-03" style="stop-color:#ED1C24"/>
	<stop  offset="0.2147" style="stop-color:#E81C24"/>
	<stop  offset="0.3682" style="stop-color:#DE1B23"/>
	<stop  offset="0.5031" style="stop-color:#D01A22"/>
	<stop  offset="0.6272" style="stop-color:#BD171F"/>
	<stop  offset="0.7438" style="stop-color:#A5121A"/>
	<stop  offset="0.8549" style="stop-color:#880812"/>
	<stop  offset="0.9598" style="stop-color:#6A0004"/>
	<stop  offset="1" style="stop-color:#5E0000"/>
</radialGradient>
<path style="fill:url(#SVGID_00000012449016876383790220000014339501936595308161_);" d="M226.2,179.3c1.3,9.8-2.9,18.4-9.3,19.3
	c-6.5,0.9-12.8-6.3-14.1-16.1s2.9-18.4,9.3-19.3C218.6,162.3,224.9,169.5,226.2,179.3z"/>
</svg>
