<?xml version="1.0" encoding="utf-8"?>
<!-- Generator: Adobe Illustrator 26.0.0, SVG Export Plug-In . SVG Version: 6.00 Build 0)  -->
<svg version="1.1" id="Layer_1" xmlns="http://www.w3.org/2000/svg" xmlns:xlink="http://www.w3.org/1999/xlink" x="0px" y="0px"
	 viewBox="0 0 12.9 6.4" style="enable-background:new 0 0 12.9 6.4;" xml:space="preserve">
<style type="text/css">
	.st0{fill:#FFFFFF;}
	.st1{opacity:0.5;fill:#D1D3D4;}
</style>
<g>
	<polyline class="st0" points="12.9,0 6.4,6.4 0,0 	"/>
	<path class="st1" d="M12.9,0c-2.1,2.4-4.3,4.6-6.4,6.8C5.3,5.6,4.2,4.5,3.1,3.4C2,2.3,1,1.1,0,0c1.1,1,2.3,2,3.4,3.1
		c1.1,1,2.2,2.1,3.3,3.2H6.3C8.4,4.1,10.6,2,12.9,0L12.9,0z"/>
</g>
<g>
	<path class="st1" d="M10.9-1C9.5,0.7,8,2.2,6.4,3.8c0,0-0.2-0.2-0.2-0.2C4.8,2.1,3.3,0.6,2-1c1.6,1.3,3.1,2.8,4.6,4.3H6.3
		C7.7,1.8,9.3,0.3,10.9-1L10.9-1z"/>
</g>
</svg>
