<?xml version="1.0" encoding="UTF-8"?>
<svg width="91px" height="36px" viewBox="0 0 91 36" version="1.1" xmlns="http://www.w3.org/2000/svg" xmlns:xlink="http://www.w3.org/1999/xlink">
    <!-- Generator: Sketch 60 (88103) - https://sketch.com -->
    <title>矩形备份 2</title>
    <desc>Created with Sketch.</desc>
    <g id="页面-1" stroke="none" stroke-width="1" fill="none" fill-rule="evenodd">
        <g id="画板" transform="translate(-710.000000, -1029.000000)" fill="#FA386F">
            <g id="编组-2" transform="translate(709.000000, 1030.710735)">
                <path d="M1,20.2892646 C18.3150236,7.42975486 33.5588337,1 46.7314303,1 C59.9040269,1 74.9935501,7.42975486 92,20.2892646 L92,34.2892646 L1,34.2892646 L1,20.2892646 Z" id="路径备份-5" opacity="0.3" transform="translate(46.500000, 17.644632) scale(-1, 1) translate(-46.500000, -17.644632) "></path>
                <path d="M46.7314303,0 C59.9759059,0 75.031136,6.33989473 91.9175498,18.9759073 L92.6031374,19.4916272 L91.3968626,21.0869019 C74.5487355,8.34710872 59.6531685,2 46.7314303,2 C33.9793946,2 19.1552063,8.18104416 2.28142694,20.5857726 L1.596232,21.0920768 L0.403768003,19.4864524 C17.875873,6.51028155 33.3105977,0 46.7314303,0 Z" id="路径备份-5" fill-rule="nonzero" transform="translate(46.503453, 10.546038) scale(-1, 1) translate(-46.503453, -10.546038) "></path>
            </g>
        </g>
    </g>
</svg>