<?xml version="1.0" encoding="UTF-8"?>
<svg width="91px" height="36px" viewBox="0 0 91 36" version="1.1" xmlns="http://www.w3.org/2000/svg" xmlns:xlink="http://www.w3.org/1999/xlink">
    <!-- Generator: Sketch 60 (88103) - https://sketch.com -->
    <title>矩形备份 8</title>
    <desc>Created with Sketch.</desc>
    <g id="页面-1" stroke="none" stroke-width="1" fill="none" fill-rule="evenodd">
        <g id="画板" transform="translate(-978.000000, -1029.000000)" fill="#45D571">
            <g id="编组-9" transform="translate(977.403768, 1030.710735)">
                <path d="M0.596231997,20.2892646 C17.9112556,7.42975486 33.1550657,1 46.3276623,1 C59.5002589,1 74.5897821,7.42975486 91.596232,20.2892646 L91.596232,34.2892646 L0.596231997,34.2892646 L0.596231997,20.2892646 Z" id="路径备份-13" opacity="0.29813058" transform="translate(46.096232, 17.644632) scale(-1, 1) translate(-46.096232, -17.644632) "></path>
                <path d="M46.3276623,-5.68434189e-13 C59.5721379,-5.68434189e-13 74.627368,6.33989473 91.5137818,18.9759073 L92.1993694,19.4916272 L90.9930946,21.0869019 C74.1449675,8.34710872 59.2494005,2 46.3276623,2 C33.5756266,2 18.7514383,8.18104416 1.87765893,20.5857726 L1.19246399,21.0920768 L0,19.4864524 C17.472105,6.51028155 32.9068297,-5.68434189e-13 46.3276623,-5.68434189e-13 Z" id="路径备份-14" fill-rule="nonzero" transform="translate(46.099685, 10.546038) scale(-1, 1) translate(-46.099685, -10.546038) "></path>
            </g>
        </g>
    </g>
</svg>