<svg xmlns="http://www.w3.org/2000/svg" width="22" height="22" viewBox="0 0 22 22">
    <g fill="none" fill-rule="evenodd">
        <g>
            <g>
                <g>
                    <g transform="translate(-26 -716) translate(0 693) translate(12 16) translate(14 7)">
                        <circle cx="11" cy="11" r="11" fill="#FFF"/>
                        <path fill="#00EF8B" fill-rule="nonzero" d="M11 0c6.075 0 11 4.925 11 11s-4.925 11-11 11S0 17.075 0 11 4.925 0 11 0zM9.616 9.28H8.45c-2.358 0-4.27 1.911-4.27 4.27 0 2.358 1.912 4.27 4.27 4.27 2.359 0 4.27-1.912 4.27-4.27v-1.164h3.107V9.28H12.72v3.104H9.616v1.166c0 .644-.522 1.166-1.166 1.166-.644 0-1.166-.522-1.166-1.166 0-.644.522-1.166 1.166-1.166h1.166V9.28zm7.764-4.66h-3.494c-2.357.002-4.267 1.913-4.27 4.27v.39h3.104v-.39c.002-.643.523-1.164 1.166-1.164h3.494V4.62z"/>
                        <path fill="#16FF99" fill-rule="nonzero" d="M9.616 12.384L12.72 12.384 12.72 12.384 12.72 9.28 12.72 9.28 9.616 9.28z"/>
                    </g>
                </g>
            </g>
        </g>
    </g>
</svg>
