<svg xmlns="http://www.w3.org/2000/svg" xmlns:xlink="http://www.w3.org/1999/xlink" width="23" height="22" viewBox="0 0 23 22">
    <g fill="none" fill-rule="evenodd" transform="translate(4.5 4)">
        <path fill="#FFFFFF" d="M.22.22c.293-.293.768-.293 1.06 0L7 5.939l5.72-5.72c.292-.292.767-.292 1.06 0 .267.267.29.683.073.977l-.073.084L8.061 7l5.72 5.72.072.084c.218.294.194.71-.073.976-.293.293-.768.293-1.06 0L7 8.061l-5.72 5.72c-.292.292-.767.292-1.06 0-.267-.267-.29-.683-.073-.977l.073-.084L5.939 7 .219 1.28l-.072-.084C-.071.902-.047.486.22.22z"/>
    </g>
</svg>
