<?xml version="1.0" encoding="utf-8"?>
<!-- Generator: Adobe Illustrator 25.0.0, SVG Export Plug-In . SVG Version: 6.00 Build 0)  -->
<svg version="1.1" id="Layer_1" xmlns="http://www.w3.org/2000/svg" xmlns:xlink="http://www.w3.org/1999/xlink" x="0px" y="0px"
	 viewBox="0 0 341.4 60.1" style="enable-background:new 0 0 341.4 60.1;" xml:space="preserve">
<style type="text/css">
	.st0{fill:#231F20;}
</style>
<g>
	<polygon class="st0" points="0,12.8 8.9,12.8 8.9,58.9 23.9,58.9 23.9,12.8 32.8,12.8 32.8,1.2 0,1.2 	"/>
	<polygon class="st0" points="55.7,21.8 51.2,21.8 51.2,1.2 36.2,1.2 36.2,58.9 51.2,58.9 51.2,34.7 55.7,34.7 55.7,58.9 70.7,58.9 
		70.7,1.2 55.7,1.2 	"/>
	<rect x="76.3" y="21.6" class="st0" width="14.8" height="37.3"/>
	<rect x="76.3" y="1.2" class="st0" width="14.8" height="14.8"/>
	<polygon class="st0" points="117.7,27.2 109.3,1.2 96.7,1.2 96.7,58.9 109.3,58.9 109.3,32.7 117.1,58.9 130.2,58.9 130.2,1.2 
		117.7,1.2 	"/>
	<path class="st0" d="M163.7,2.7c-2.9-1.8-6.5-2.7-10.9-2.7c-4.5,0-8.1,1-10.9,3.1c-2.8,2.1-4.5,4.4-5.1,6.9
		c-0.6,2.5-0.9,6.5-0.9,12v17.1c0,4,0.1,6.9,0.4,8.9c0.3,2,1,3.9,2.1,5.7c1.1,1.8,2.8,3.3,5,4.5c2.2,1.2,4.6,1.8,7.1,1.8
		c2.1,0,4-0.4,5.5-1.3c1.6-0.9,2.8-2.2,3.9-4l1.4,4.1h9.4v-31h-17.6v8.8h3v6.8c0,2.7-0.2,4.5-0.6,5.4c-0.4,0.9-1.1,1.4-2.2,1.4
		c-1,0-1.7-0.4-2-1.2c-0.3-0.8-0.5-2.5-0.5-5.1V16.3c0-2.9,0.2-4.8,0.5-5.5c0.3-0.7,1-1.1,1.9-1.1c1.1,0,1.7,0.4,2,1.2
		c0.3,0.8,0.4,2.9,0.4,6.2v5.2h15V20c0-4.7-0.4-8.3-1.3-10.8S166.6,4.5,163.7,2.7z"/>
	<path class="st0" d="M340.9,10.6c-0.3-1.9-1.2-3.6-2.5-5.1c-1.3-1.5-3.3-2.6-5.8-3.3c-2.6-0.7-7.5-1-14.7-1h-1h-10.2h-1v57.7h1
		h17.9h1c3.6,0,6.3-0.2,8.1-0.6c1.8-0.4,3.3-1.1,4.5-2.1c1.2-1,2.1-2.4,2.5-4.1c0.5-1.7,0.7-5.2,0.7-10.4V21.6
		C341.4,16.1,341.2,12.4,340.9,10.6z M325.4,40.7c0,3.8-0.2,6.2-0.7,7.1c-0.4,0.7-1.4,1.1-3,1.3V11.1c1.1,0.1,1.9,0.2,2.3,0.5
		c0.6,0.3,1,0.9,1.1,1.6c0.2,0.7,0.2,2.4,0.2,5V40.7z"/>
	<polygon class="st0" points="198.2,1.2 197.2,1.2 197.2,58.9 198.2,58.9 212.2,58.9 213.2,58.9 213.2,34.7 221.4,34.7 222.4,34.7 
		222.4,23.7 221.4,23.7 213.2,23.7 213.2,12.8 222.6,12.8 223.6,12.8 223.6,1.2 222.6,1.2 	"/>
	<path class="st0" d="M246.3,1.2h-1v42.5c0,2.9-0.1,4.7-0.4,5.5c-0.2,0.6-0.7,1-1.3,1.1c-0.6-0.1-1-0.4-1.2-1
		c-0.3-0.7-0.4-2.3-0.4-4.8V1.2h-1h-14h-1v34.1c0,6.5,0.1,10.8,0.4,12.8s1,4,2.3,5.8c1.3,1.8,3.3,3.3,5.9,4.5
		c2.6,1.1,5.7,1.7,9.1,1.7c0.2,0,0.3,0,0.5,0c0.2,0,0.3,0,0.5,0c3.1,0,5.8-0.5,8.1-1.4c2.3-1,4.1-2.4,5.5-4.2
		c1.4-1.9,2.2-3.7,2.5-5.5c0.3-1.8,0.4-4.8,0.4-9.2V1.2h-1H246.3z"/>
	<polygon class="st0" points="288.1,1.2 287.1,1.2 287.1,24.1 279.7,1.2 278.7,1.2 267.1,1.2 266.1,1.2 266.1,58.9 267.1,58.9 
		278.7,58.9 279.7,58.9 279.7,36 286.5,58.9 287.5,58.9 299.6,58.9 300.6,58.9 300.6,1.2 299.6,1.2 	"/>
	<rect x="176.6" y="44.1" class="st0" width="14.8" height="14.8"/>
</g>
</svg>
