<svg width="350" height="70" viewBox="0 0 350 70" fill="none" xmlns="http://www.w3.org/2000/svg">
<path fill-rule="evenodd" clip-rule="evenodd" d="M333.5 28H326.5V44H309.5V51H326.5V68H333.5V51H349.5V44H333.5V28Z" fill="black"/>
<path d="M103.914 28.0146V68.284H97.1635V60.9781C95.5347 63.9125 93.4547 66.1498 90.9235 67.6899C88.3924 69.23 85.5576 70 82.4192 70C76.5863 70 71.8859 68.0121 68.3179 64.0361C64.7498 60.0602 62.9658 54.8013 62.9658 48.2594C62.9658 41.6285 64.6981 36.3545 68.1627 32.4373C71.6272 28.5202 76.261 26.5616 82.0639 26.5616C85.4686 26.5616 88.4223 27.3171 90.9252 28.8281C93.428 30.339 95.4486 32.5909 96.987 35.5836V28.0146H103.914ZM97.1635 48.5233C97.1635 43.9759 95.911 40.3156 93.406 37.5425C90.9009 34.7693 87.6365 33.383 83.6127 33.3836C79.438 33.3836 76.1809 34.6601 73.8414 37.213C71.502 39.766 70.3352 43.3305 70.3412 47.9065C70.3412 52.7777 71.5183 56.5335 73.8725 59.1738C76.2267 61.8142 79.5641 63.1349 83.8847 63.136C88.0305 63.136 91.2802 61.8525 93.6339 59.2855C95.9875 56.7185 97.1646 53.1311 97.1651 48.5233H97.1635Z" fill="black"/>
<path d="M107.439 69.885V1.66986H114.412V47.8797L133.999 29.6156H143.281L122.983 48.0562L145.102 69.885H135.375L114.412 48.6285V69.885H107.439Z" fill="black"/>
<path d="M179.286 27.9571V68.2265H172.535V60.9205C170.906 63.855 168.826 66.0923 166.295 67.6324C163.764 69.1725 160.929 69.9425 157.79 69.9425C151.956 69.9425 147.255 67.9548 143.688 63.9794C140.121 60.004 138.337 54.7448 138.335 48.2019C138.335 41.571 140.068 36.2972 143.532 32.3806C146.997 28.464 151.631 26.5055 157.434 26.5049C160.839 26.5049 163.792 27.2604 166.295 28.7714C168.797 30.2823 170.818 32.5342 172.357 35.5269V27.9571H179.286ZM172.535 48.4666C172.535 43.9186 171.284 40.2583 168.781 37.4857C166.279 34.7132 163.015 33.3266 158.988 33.3261C154.814 33.3261 151.557 34.6025 149.217 37.1555C146.877 39.7085 145.708 43.2732 145.709 47.8498C145.709 52.7204 146.886 56.4759 149.24 59.1163C151.593 61.7567 154.932 63.0771 159.255 63.0777C163.4 63.0777 166.649 61.7939 169.003 59.2264C171.358 56.6589 172.535 53.0722 172.535 48.4666Z" fill="black"/>
<path d="M182.43 68.2119V27.9425H189.226V34.1485C190.973 31.5664 193.075 29.6445 195.533 28.3829C197.99 27.1212 200.832 26.4904 204.061 26.4904C208.857 26.4904 212.603 27.7521 215.297 30.2753C217.992 32.7986 219.338 36.3054 219.336 40.7956V68.2119H212.229V44.4906C212.229 40.4127 211.363 37.3833 209.632 35.4023C207.9 33.4213 205.228 32.4311 201.615 32.4317C199.542 32.4317 197.654 32.8059 195.952 33.5544C194.3 34.2659 192.846 35.3615 191.713 36.7484C190.851 37.8108 190.223 39.0403 189.869 40.3577C189.499 41.7067 189.314 44.0541 189.315 47.3997V68.2119H182.43Z" fill="black"/>
<path d="M262.78 0V68.216H256.03V60.91C254.43 63.8143 252.358 66.0443 249.812 67.6C247.266 69.1558 244.423 69.9342 241.284 69.9352C235.451 69.9352 230.751 67.9473 227.183 63.9713C223.616 59.9954 221.832 54.7365 221.83 48.1946C221.83 41.5929 223.578 36.3264 227.072 32.3952C230.567 28.4641 235.215 26.498 241.018 26.4969C244.395 26.4969 247.326 27.2524 249.812 28.7633C252.298 30.2742 254.31 32.5253 255.849 35.5164V0H262.78ZM256.03 48.2788C256.03 43.7902 254.771 40.1747 252.254 37.4324C249.737 34.69 246.421 33.3177 242.306 33.3156C238.189 33.3156 234.976 34.5626 232.667 37.0568C230.357 39.5509 229.203 42.9983 229.203 47.3989C229.203 52.3575 230.374 56.2377 232.716 59.0394C235.058 61.8412 238.285 63.242 242.398 63.242C246.662 63.242 250.001 61.9218 252.414 59.2815C254.827 56.6411 256.032 52.9735 256.03 48.2788Z" fill="black"/>
<path d="M306.5 27.9255V68.195H299.75V60.8907C298.121 63.8251 296.041 66.0624 293.51 67.6025C290.978 69.1426 288.143 69.9126 285.004 69.9126C279.171 69.9126 274.471 67.9249 270.903 63.9495C267.336 59.9741 265.552 54.7149 265.551 48.172C265.551 41.5411 267.283 36.2673 270.747 32.3507C274.211 28.4341 278.845 26.4756 284.648 26.475C288.053 26.475 291.007 27.2305 293.51 28.7415C296.012 30.2524 298.033 32.5043 299.571 35.497V27.9255H306.5ZM299.75 48.4367C299.75 43.8887 298.498 40.2284 295.996 37.4558C293.494 34.6833 290.229 33.2967 286.203 33.2962C282.028 33.2962 278.771 34.5726 276.432 37.1256C274.093 39.6786 272.923 43.2433 272.92 47.8199C272.921 52.6884 274.099 56.4447 276.454 59.0888C278.81 61.733 282.148 63.0535 286.47 63.0502C290.615 63.0502 293.864 61.7665 296.218 59.1989C298.572 56.6314 299.75 53.044 299.75 48.4367Z" fill="black"/>
<path d="M68.2108 9.08508L53.3008 47.6814L36.8574 9.08508L36.8117 9.10289L36.8043 9.08508H25.3292L34.616 31.7752L28.4716 47.6814L12.0275 9.08508L11.9817 9.10289L11.9752 9.08508H0.5L25.2181 69.4803L28.9838 59.738L37.2757 38.2742L50.0472 69.4803L53.8129 59.738L73.3807 9.08508H68.2108Z" fill="black"/>
</svg>
