<?xml version="1.0" encoding="UTF-8"?>
<svg width="161px" height="32px" viewBox="0 0 161 32" version="1.1" xmlns="http://www.w3.org/2000/svg" xmlns:xlink="http://www.w3.org/1999/xlink">
    <!-- Generator: Sketch 60 (88103) - https://sketch.com -->
    <title>编组 39备份</title>
    <desc>Created with Sketch.</desc>
    <g id="页面-1" stroke="none" stroke-width="1" fill="none" fill-rule="evenodd">
        <g id="编组-39备份">
            <path d="M12.4320913,29.3757845 L12.4320913,29.6705724 L12.3992395,29.6705724 L12.3937643,29.6405118 L12.3937643,29.6405118 L12.3773384,29.6175623 C12.3627376,29.604633 12.3344487,29.5981684 12.2924715,29.5981684 L12.2924715,29.5981684 L11.438327,29.5981684 L11.438327,30.006734 L11.9940684,30.006734 L12.0388973,30.0028552 L12.0388973,30.0028552 L12.0748289,29.9912189 C12.0958175,29.9808754 12.1063118,29.9619125 12.1063118,29.93433 L12.1063118,29.93433 L12.1391635,29.93433 L12.1391635,30.2472189 L12.1063118,30.2472189 L12.1035741,30.2239461 C12.099924,30.2101549 12.0926236,30.1998114 12.081673,30.1929158 C12.0652471,30.1825724 12.0378707,30.1774007 11.9995437,30.1774007 L11.9995437,30.1774007 L11.438327,30.1774007 L11.438327,30.6169966 L12.3526996,30.6169966 L12.3876806,30.6148418 C12.4087706,30.6119686 12.4253992,30.6062222 12.4375665,30.5976027 C12.4558175,30.5846734 12.464943,30.5618316 12.464943,30.5290774 L12.464943,30.5290774 L12.4977947,30.5290774 L12.4977947,30.8367946 L12.464943,30.8367946 L12.4589544,30.8152997 C12.4469772,30.7968754 12.4170342,30.7876633 12.3691255,30.7876633 L12.3691255,30.7876633 L11.1426616,30.7876633 L11.1426616,30.756633 L11.1748289,30.752431 L11.1748289,30.752431 L11.1946768,30.7398249 C11.2038023,30.7286195 11.208365,30.7135354 11.208365,30.6945724 L11.208365,30.6945724 L11.208365,29.5205926 L11.204943,29.4950572 L11.204943,29.4950572 L11.1946768,29.4753401 C11.1855513,29.4641347 11.1682129,29.458532 11.1426616,29.458532 L11.1426616,29.458532 L11.1426616,29.4275017 L12.2897338,29.4275017 L12.3314068,29.4262088 C12.3553359,29.4244848 12.3715589,29.421037 12.380076,29.4158653 C12.3928517,29.4081077 12.3992395,29.3947475 12.3992395,29.3757845 L12.3992395,29.3757845 L12.4320913,29.3757845 Z M24.1081369,29.4119865 C24.2267681,29.4119865 24.3362738,29.4270707 24.436654,29.4572391 C24.5370342,29.4874074 24.6241825,29.532229 24.6980989,29.5917037 C24.7720152,29.6511785 24.8295057,29.7240135 24.8705703,29.8102088 C24.911635,29.896404 24.9321673,29.9955286 24.9321673,30.1075825 C24.9321673,30.2196364 24.911635,30.3187609 24.8705703,30.4049562 C24.8295057,30.4911515 24.7720152,30.5635556 24.6980989,30.6221684 C24.6241825,30.6807811 24.5370342,30.7243098 24.436654,30.7527542 C24.3362738,30.7811987 24.2267681,30.7954209 24.1081369,30.7954209 C23.9895057,30.7954209 23.88,30.7811987 23.7796198,30.7527542 C23.6792395,30.7243098 23.5920913,30.6807811 23.5181749,30.6221684 C23.4442586,30.5635556 23.3867681,30.4911515 23.3457034,30.4049562 C23.3046388,30.3187609 23.2841065,30.2196364 23.2841065,30.1075825 C23.2841065,29.9955286 23.3046388,29.896404 23.3457034,29.8102088 C23.3867681,29.7240135 23.4442586,29.6511785 23.5181749,29.5917037 C23.5920913,29.532229 23.6792395,29.4874074 23.7796198,29.4572391 C23.88,29.4270707 23.9895057,29.4119865 24.1081369,29.4119865 Z M25.2606844,29.3602694 L25.266673,29.3896835 C25.2786502,29.4148956 25.3085932,29.4275017 25.3565019,29.4275017 L25.3565019,29.4275017 L26.5063118,29.4275017 L26.5482319,29.4232997 C26.5841635,29.4148956 26.6021293,29.3938855 26.6021293,29.3602694 L26.6021293,29.3602694 L26.634981,29.3602694 L26.634981,29.6654007 L26.6021293,29.6654007 L26.596654,29.6327542 L26.596654,29.6327542 L26.5802281,29.6123906 C26.5656274,29.6029091 26.5409886,29.5981684 26.5063118,29.5981684 L26.5063118,29.5981684 L26.0463878,29.5981684 L26.0463878,30.6945724 L26.0498099,30.7201077 L26.0498099,30.7201077 L26.060076,30.7398249 C26.0692015,30.7510303 26.0865399,30.756633 26.1120913,30.756633 L26.1120913,30.756633 L26.1120913,30.7876633 L25.7507224,30.7876633 L25.7507224,30.756633 L25.7828897,30.752431 L25.7828897,30.752431 L25.8027376,30.7398249 C25.8118631,30.7286195 25.8164259,30.7135354 25.8164259,30.6945724 L25.8164259,30.6945724 L25.8164259,29.5981684 L25.3565019,29.5981684 L25.3251711,29.5997486 C25.3065146,29.6018556 25.2923194,29.6060696 25.2825856,29.6123906 C25.2679848,29.6218721 25.2606844,29.6395421 25.2606844,29.6654007 L25.2606844,29.6654007 L25.2278327,29.6654007 L25.2278327,29.3602694 L25.2606844,29.3602694 Z M10.0996198,29.4275017 L10.2018981,29.4313805 C10.3300928,29.4417239 10.4255817,29.4727542 10.488365,29.5244714 C10.5668441,29.5891178 10.6060837,29.6826397 10.6060837,29.805037 C10.6060837,29.9136431 10.5759696,29.9998384 10.5157414,30.0636229 C10.4555133,30.1274074 10.3569582,30.1679192 10.220076,30.1851582 L10.220076,30.1851582 L10.565019,30.6894007 L10.5920532,30.7236633 L10.5920532,30.7236633 L10.6129278,30.7437037 C10.6247909,30.7523232 10.6444106,30.756633 10.6717871,30.756633 L10.6717871,30.756633 L10.6717871,30.7876633 L10.2775665,30.7876633 L10.2775665,30.756633 L10.306654,30.7553401 L10.306654,30.7553401 L10.3227376,30.7514613 C10.3291255,30.7480135 10.3323194,30.7419798 10.3323194,30.7333603 C10.3323194,30.7230168 10.3277567,30.7135354 10.3186312,30.7049158 L10.3186312,30.7049158 L9.98190114,30.1980875 L9.4781749,30.1980875 L9.4781749,30.6945724 L9.48159696,30.7201077 L9.48159696,30.7201077 L9.49186312,30.7398249 C9.50098859,30.7510303 9.518327,30.756633 9.54387833,30.756633 L9.54387833,30.756633 L9.54387833,30.7876633 L9.18250951,30.7876633 L9.18250951,30.756633 L9.21467681,30.752431 L9.21467681,30.752431 L9.23452471,30.7398249 C9.24365019,30.7286195 9.24821293,30.7135354 9.24821293,30.6945724 L9.24821293,30.6945724 L9.24821293,29.5205926 L9.24479087,29.4950572 L9.24479087,29.4950572 L9.23452471,29.4753401 C9.22539924,29.4641347 9.20806084,29.458532 9.18250951,29.458532 L9.18250951,29.458532 L9.18250951,29.4275017 L10.0996198,29.4275017 Z M13.7790114,29.4275017 L13.888365,29.4331044 C13.9587326,29.4405746 14.0240304,29.4555152 14.0842586,29.4779259 C14.1746008,29.5115421 14.2512548,29.5585185 14.3142205,29.6188552 C14.3771863,29.6791919 14.4260076,29.751165 14.4606844,29.8347744 C14.4953612,29.9183838 14.5126996,30.0093199 14.5126996,30.1075825 C14.5126996,30.2058451 14.4980989,30.2967811 14.4688973,30.3803906 C14.4396958,30.464 14.3963498,30.5359731 14.3388593,30.5963098 C14.2813688,30.6566465 14.2101901,30.7036229 14.1253232,30.7372391 C14.0404563,30.7708552 13.9423574,30.7876633 13.8310266,30.7876633 L13.8310266,30.7876633 L12.9303422,30.7876633 L12.9303422,30.756633 L12.9625095,30.752431 L12.9625095,30.752431 L12.9823574,30.7398249 C12.9914829,30.7286195 12.9960456,30.7135354 12.9960456,30.6945724 L12.9960456,30.6945724 L12.9960456,29.5205926 L12.9926236,29.4950572 L12.9926236,29.4950572 L12.9823574,29.4753401 C12.9732319,29.4641347 12.9558935,29.458532 12.9303422,29.458532 L12.9303422,29.458532 L12.9303422,29.4275017 L13.7790114,29.4275017 Z M16.6918631,29.4275017 L16.7941414,29.4313288 C16.9223361,29.4415343 17.0178251,29.4721508 17.0806084,29.5231785 C17.1590875,29.586963 17.198327,29.6766061 17.198327,29.7921077 C17.198327,29.9214007 17.1595437,30.0213872 17.0819772,30.0920673 C17.0044106,30.1627475 16.8771103,30.1980875 16.700076,30.1980875 L16.700076,30.1980875 L16.0676806,30.1980875 L16.0676806,30.6945724 L16.0711027,30.7201077 L16.0711027,30.7201077 L16.0813688,30.7398249 C16.0904943,30.7510303 16.1078327,30.756633 16.133384,30.756633 L16.133384,30.756633 L16.133384,30.7876633 L15.7720152,30.7876633 L15.7720152,30.756633 L15.8041825,30.752431 L15.8041825,30.752431 L15.8240304,30.7398249 C15.8331559,30.7286195 15.8377186,30.7135354 15.8377186,30.6945724 L15.8377186,30.6945724 L15.8377186,29.5205926 L15.8342966,29.4950572 L15.8342966,29.4950572 L15.8240304,29.4753401 C15.8149049,29.4641347 15.7975665,29.458532 15.7720152,29.458532 L15.7720152,29.458532 L15.7720152,29.4275017 L16.6918631,29.4275017 Z M18.4247909,29.4275017 L18.4247909,29.458532 L18.4004563,29.4619798 C18.3874778,29.4665769 18.3809886,29.475771 18.3809886,29.4895623 C18.3809886,29.4999057 18.3855513,29.513266 18.3946768,29.5296431 C18.4038023,29.5460202 18.4156654,29.568862 18.4302662,29.5981684 L18.4302662,29.5981684 L18.9558935,30.6273401 L18.9777947,30.6687138 L18.9777947,30.6687138 L18.9942205,30.6997441 C19.003346,30.7169832 19.0120152,30.7299125 19.0202281,30.738532 C19.0284411,30.7471515 19.0371103,30.7523232 19.0462357,30.7540471 C19.0553612,30.755771 19.0681369,30.756633 19.0845627,30.756633 L19.0845627,30.756633 L19.0845627,30.7876633 L18.7040304,30.7876633 L18.7040304,30.756633 L18.7314068,30.7543704 L18.7314068,30.7543704 L18.7478327,30.7475825 C18.7551331,30.7415488 18.7587833,30.7324983 18.7587833,30.720431 C18.7587833,30.7118114 18.7565019,30.7027609 18.7519392,30.6932795 C18.7473764,30.683798 18.7377947,30.6635421 18.7231939,30.6325118 L18.7231939,30.6325118 L18.6191635,30.4256431 L17.8444106,30.4256431 L17.7513308,30.6325118 L17.7396958,30.6570774 L17.7396958,30.6570774 L17.726692,30.684229 C17.7175665,30.7031919 17.7130038,30.7178451 17.7130038,30.7281886 C17.7130038,30.7471515 17.7285171,30.756633 17.7595437,30.756633 L17.7595437,30.756633 L17.7595437,30.7876633 L17.4228137,30.7876633 L17.4228137,30.756633 L17.4382129,30.7559865 L17.4382129,30.7559865 L17.4515589,30.7540471 C17.4597719,30.7523232 17.4675285,30.7471515 17.4748289,30.738532 C17.4821293,30.7299125 17.4903422,30.7174141 17.4994677,30.701037 C17.5085932,30.6846599 17.5204563,30.6626801 17.535057,30.6350976 L17.535057,30.6350976 L18.0305703,29.5904108 L18.0497338,29.5519461 L18.0497338,29.5519461 L18.0634221,29.5244714 C18.0707224,29.5098182 18.0743726,29.4981818 18.0743726,29.4895623 C18.0743726,29.4688754 18.0579468,29.458532 18.0250951,29.458532 L18.0250951,29.458532 L18.0250951,29.4275017 L18.4247909,29.4275017 Z M20.3685171,29.4275017 L20.4707954,29.4313805 C20.5989901,29.4417239 20.6944791,29.4727542 20.7572624,29.5244714 C20.8357414,29.5891178 20.874981,29.6826397 20.874981,29.805037 C20.874981,29.9136431 20.8448669,29.9998384 20.7846388,30.0636229 C20.7244106,30.1274074 20.6258555,30.1679192 20.4889734,30.1851582 L20.4889734,30.1851582 L20.8339163,30.6894007 L20.8609506,30.7236633 L20.8609506,30.7236633 L20.8818251,30.7437037 C20.8936882,30.7523232 20.913308,30.756633 20.9406844,30.756633 L20.9406844,30.756633 L20.9406844,30.7876633 L20.5464639,30.7876633 L20.5464639,30.756633 L20.5755513,30.7553401 L20.5755513,30.7553401 L20.591635,30.7514613 C20.5980228,30.7480135 20.6012167,30.7419798 20.6012167,30.7333603 C20.6012167,30.7230168 20.596654,30.7135354 20.5875285,30.7049158 L20.5875285,30.7049158 L20.2507985,30.1980875 L19.7470722,30.1980875 L19.7470722,30.6945724 L19.7504943,30.7201077 L19.7504943,30.7201077 L19.7607605,30.7398249 C19.7698859,30.7510303 19.7872243,30.756633 19.8127757,30.756633 L19.8127757,30.756633 L19.8127757,30.7876633 L19.4514068,30.7876633 L19.4514068,30.756633 L19.4835741,30.752431 L19.4835741,30.752431 L19.5034221,30.7398249 C19.5125475,30.7286195 19.5171103,30.7135354 19.5171103,30.6945724 L19.5171103,30.6945724 L19.5171103,29.5205926 L19.5136882,29.4950572 L19.5136882,29.4950572 L19.5034221,29.4753401 C19.4942966,29.4641347 19.4769582,29.458532 19.4514068,29.458532 L19.4514068,29.458532 L19.4514068,29.4275017 L20.3685171,29.4275017 Z M22.3450951,29.4275017 L22.4473734,29.4313805 C22.5755681,29.4417239 22.671057,29.4727542 22.7338403,29.5244714 C22.8123194,29.5891178 22.8515589,29.6826397 22.8515589,29.805037 C22.8515589,29.9136431 22.8214449,29.9998384 22.7612167,30.0636229 C22.7009886,30.1274074 22.6024335,30.1679192 22.4655513,30.1851582 L22.4655513,30.1851582 L22.8104943,30.6894007 L22.8375285,30.7236633 L22.8375285,30.7236633 L22.858403,30.7437037 C22.8702662,30.7523232 22.8898859,30.756633 22.9172624,30.756633 L22.9172624,30.756633 L22.9172624,30.7876633 L22.5230418,30.7876633 L22.5230418,30.756633 L22.5521293,30.7553401 L22.5521293,30.7553401 L22.5682129,30.7514613 C22.5746008,30.7480135 22.5777947,30.7419798 22.5777947,30.7333603 C22.5777947,30.7230168 22.5732319,30.7135354 22.5641065,30.7049158 L22.5641065,30.7049158 L22.2273764,30.1980875 L21.7236502,30.1980875 L21.7236502,30.6945724 L21.7270722,30.7201077 L21.7270722,30.7201077 L21.7373384,30.7398249 C21.7464639,30.7510303 21.7638023,30.756633 21.7893536,30.756633 L21.7893536,30.756633 L21.7893536,30.7876633 L21.4279848,30.7876633 L21.4279848,30.756633 L21.4601521,30.752431 L21.4601521,30.752431 L21.48,30.7398249 C21.4891255,30.7286195 21.4936882,30.7135354 21.4936882,30.6945724 L21.4936882,30.6945724 L21.4936882,29.5205926 L21.4902662,29.4950572 L21.4902662,29.4950572 L21.48,29.4753401 C21.4708745,29.4641347 21.4535361,29.458532 21.4279848,29.458532 L21.4279848,29.458532 L21.4279848,29.4275017 L22.3450951,29.4275017 Z M24.1081369,29.5878249 C23.9219772,29.5878249 23.778251,29.6339394 23.6769582,29.7261684 C23.5756654,29.8183973 23.525019,29.9455354 23.525019,30.1075825 C23.525019,30.2696296 23.5756654,30.3967677 23.6769582,30.4889966 C23.778251,30.5812256 23.9219772,30.6273401 24.1081369,30.6273401 C24.2942966,30.6273401 24.4380228,30.5812256 24.5393156,30.4889966 C24.6406084,30.3967677 24.6912548,30.2696296 24.6912548,30.1075825 C24.6912548,29.9455354 24.6406084,29.8183973 24.5393156,29.7261684 C24.4380228,29.6339394 24.2942966,29.5878249 24.1081369,29.5878249 Z M13.7571103,29.5981684 L13.2260076,29.5981684 L13.2260076,30.6169966 L13.8063878,30.6169966 C13.9669962,30.6169966 14.0874525,30.573899 14.1677567,30.4877037 C14.2480608,30.4015084 14.2882129,30.2748013 14.2882129,30.1075825 C14.2882129,29.9403636 14.2421293,29.8136566 14.149962,29.7274613 C14.0577947,29.641266 13.9268441,29.5981684 13.7571103,29.5981684 L13.7571103,29.5981684 Z M18.21673,29.6447138 L17.9320152,30.2549764 L18.5260837,30.2549764 L18.21673,29.6447138 Z M22.3095057,29.6033401 L21.7236502,29.6033401 L21.7236502,30.0222492 L22.3231939,30.0222492 C22.4345247,30.0222492 22.5130038,30.0024242 22.5586312,29.9627744 C22.6042586,29.9231246 22.6270722,29.8688215 22.6270722,29.7998653 C22.6270722,29.7653872 22.6225095,29.7360808 22.613384,29.7119461 C22.6042586,29.6878114 22.5878327,29.6675556 22.5641065,29.6511785 C22.5403802,29.6348013 22.5079848,29.622734 22.4669202,29.6149764 C22.4258555,29.6072189 22.373384,29.6033401 22.3095057,29.6033401 L22.3095057,29.6033401 Z M20.3329278,29.6033401 L19.7470722,29.6033401 L19.7470722,30.0222492 L20.346616,30.0222492 C20.4579468,30.0222492 20.5364259,30.0024242 20.5820532,29.9627744 C20.6276806,29.9231246 20.6504943,29.8688215 20.6504943,29.7998653 C20.6504943,29.7653872 20.6459316,29.7360808 20.6368061,29.7119461 C20.6276806,29.6878114 20.6112548,29.6675556 20.5875285,29.6511785 C20.5638023,29.6348013 20.5314068,29.622734 20.4903422,29.6149764 C20.4492776,29.6072189 20.3968061,29.6033401 20.3329278,29.6033401 L20.3329278,29.6033401 Z M16.6863878,29.6033401 L16.0676806,29.6033401 L16.0676806,30.0222492 L16.6863878,30.0222492 C16.7977186,30.0222492 16.8761977,30.0024242 16.9218251,29.9627744 C16.9674525,29.9231246 16.9902662,29.8688215 16.9902662,29.7998653 C16.9902662,29.732633 16.9697338,29.6830707 16.9286692,29.6511785 C16.8876046,29.6192862 16.8068441,29.6033401 16.6863878,29.6033401 L16.6863878,29.6033401 Z M10.0640304,29.6033401 L9.4781749,29.6033401 L9.4781749,30.0222492 L10.0777186,30.0222492 C10.1890494,30.0222492 10.2675285,30.0024242 10.3131559,29.9627744 C10.3587833,29.9231246 10.381597,29.8688215 10.381597,29.7998653 C10.381597,29.7653872 10.3770342,29.7360808 10.3679087,29.7119461 C10.3587833,29.6878114 10.3423574,29.6675556 10.3186312,29.6511785 C10.2949049,29.6348013 10.2625095,29.622734 10.2214449,29.6149764 C10.1803802,29.6072189 10.1279087,29.6033401 10.0640304,29.6033401 L10.0640304,29.6033401 Z M20.046,26.966 L20.046,28.676 L18.636,28.676 L18.504,28.394 L19.428,28.394 L19.428,26.966 L20.046,26.966 Z M26.41,27.026 L26.41,28.67 L24.91,28.67 L24.766,28.388 L25.756,28.388 L25.756,27.026 L26.41,27.026 Z M16.11,27.164 L15.996,27.356 L17.64,27.356 L17.526,27.638 L17.208,27.638 L17.208,28.172 L16.878,28.244 L17.508,28.382 L17.508,28.67 L16.278,28.376 L14.952,28.67 L14.952,28.382 L15.654,28.232 L15.012,28.076 L15.138,27.86 L15.276,27.638 L14.82,27.638 L14.82,27.356 L15.444,27.356 L15.558,27.164 L16.11,27.164 Z M10.298,27.98 L10.178,28.31 L8.558,28.658 L8.558,28.37 L10.298,27.98 Z M23.164,25.01 L23.308,25.76 L23.866,25.76 L23.722,26.042 L23.362,26.042 L23.854,28.658 L23.23,28.658 L22.864,26.738 L22.738,26.984 L22.618,26.984 L22.618,27.992 L22.852,27.926 L22.852,28.214 L21.19,28.658 L21.19,28.382 L21.292,28.352 L21.292,26.69 L21.832,26.69 L21.832,28.208 L21.988,28.16 L21.988,26.162 L22.618,26.162 L22.618,26.702 L22.858,26.702 L22.732,26.042 L21.232,26.042 L21.232,25.76 L22.678,25.76 L22.534,25.01 L23.164,25.01 Z M13.4,25.202 L13.262,25.466 L12.242,25.466 L12.242,28.31 L13.454,28.31 L13.316,28.574 L10.346,28.574 L10.346,28.31 L11.582,28.31 L11.582,25.466 L10.454,25.466 L10.454,25.202 L13.4,25.202 Z M16.692,27.638 L15.828,27.638 L15.63,27.968 L16.236,28.106 L16.692,28.004 L16.692,27.638 Z M25.726,27.806 L25.582,28.094 L23.872,28.094 L23.872,27.806 L25.726,27.806 Z M19.254,27.746 L19.122,28.034 L17.568,28.034 L17.568,27.746 L19.254,27.746 Z M9.998,25.016 L9.422,26.078 L10.178,26.078 L9.506,27.338 L10.37,27.182 L10.19,27.5 L8.582,27.812 L9.314,26.342 L8.546,26.342 L9.23,25.016 L9.998,25.016 Z M25.324,25.004 L25.21,25.244 L25.756,25.244 L25.612,25.532 L24.616,25.532 L24.616,27.026 L25.756,27.026 L25.612,27.308 L23.956,27.308 L23.956,25.244 L24.496,25.244 L24.61,25.004 L25.324,25.004 Z M19.08,25.004 L18.984,25.19 L19.428,25.19 L19.296,25.472 L18.414,25.472 L18.414,25.736 L18.99,25.736 L19.242,26.45 L18.654,26.45 L18.414,25.76 L18.414,26.966 L19.428,26.966 L19.296,27.254 L17.796,27.254 L17.796,25.19 L18.318,25.19 L18.408,25.004 L19.08,25.004 Z M16.206,25.094 L16.206,26.366 L15.708,26.366 L15.708,26.324 L15.588,26.546 L15.99,26.546 L16.254,27.026 L16.62,26.366 L16.308,26.366 L16.308,25.094 L17.694,25.094 L17.694,26.366 L17.196,26.366 L17.196,26.324 L17.076,26.546 L17.478,26.546 L17.766,27.068 L17.214,27.068 L16.998,26.678 L16.788,27.068 L15.726,27.068 L15.516,26.678 L15.3,27.068 L14.748,27.068 L15.132,26.366 L14.82,26.366 L14.82,25.094 L16.206,25.094 Z M20.046,25.19 L20.046,26.846 L19.182,26.846 L19.044,26.564 L19.428,26.564 L19.428,25.19 L20.046,25.19 Z M26.41,25.244 L26.41,26.84 L25.486,26.84 L25.342,26.558 L25.756,26.558 L25.756,25.244 L26.41,25.244 Z M116.656,18.34 L116.32,19.292 L126.008,19.292 L125.252,20.72 L124.524,20.72 L124.524,23.38 L122.396,23.94 L125.168,24.612 L125.168,26.488 L118.616,24.92 L111.896,26.6 L111.756,24.752 L114.836,24.024 L111.756,23.296 L112.624,20.72 L110.86,20.72 L110.86,19.292 L113.128,19.292 L113.464,18.34 L116.656,18.34 Z M143.152,9.24 L143.152,11.844 L144.972,11.844 L144.384,13.188 L143.152,13.188 L143.152,18.34 L144.832,17.836 L144.832,19.208 L143.152,19.796 L143.152,26.572 L138.644,26.572 L138,25.312 L139.96,25.312 L139.96,20.636 L137.86,21.224 L137.86,19.796 L139.96,19.18 L139.96,13.188 L138,13.188 L138,11.844 L139.96,11.844 L139.96,9.24 L143.152,9.24 Z M156.984,14.952 L156.984,16.268 L160.512,16.268 L159.896,17.584 L156.984,17.584 L156.984,19.6 L160.512,19.6 L160.512,26.572 L149.9,26.572 L149.9,19.6 L153.848,19.6 L153.848,17.584 L149.9,17.584 L149.9,16.268 L153.848,16.268 L153.848,14.952 L156.984,14.952 Z M160.512,9.24 L160.512,14.196 L149.284,14.196 L149.284,19.376 L149.228,19.376 L147.52,26.544 L144.524,26.544 L146.26,19.264 L146.26,9.24 L160.512,9.24 Z M82.648,18.508 L82.648,26.488 L76.068,26.488 L75.452,25.172 L79.764,25.172 L79.764,18.508 L82.648,18.508 Z M64.28,19.432 L63.748,20.328 L71.42,20.328 L70.888,21.644 L69.404,21.644 L69.404,24.136 L67.864,24.472 L70.804,25.116 L70.804,26.46 L65.064,25.088 L58.876,26.46 L58.876,25.116 L62.152,24.416 L59.156,23.688 L59.744,22.68 L60.388,21.644 L58.26,21.644 L58.26,20.328 L61.172,20.328 L61.704,19.432 L64.28,19.432 Z M108.78,18.788 L108.78,26.46 L101.78,26.46 L101.108,25.144 L105.728,25.144 L105.728,18.788 L108.78,18.788 Z M25.288,25.73 L25.558,26.444 L24.928,26.444 L24.664,25.73 L25.288,25.73 Z M40.724,23.24 L40.164,24.78 L32.604,26.404 L32.604,25.06 L40.724,23.24 Z M93.632,9.38 L94.304,12.88 L96.908,12.88 L96.236,14.196 L94.556,14.196 L96.852,26.404 L93.94,26.404 L92.232,17.444 L91.644,18.592 L91.084,18.592 L91.084,23.296 L92.176,22.988 L92.176,24.332 L84.42,26.404 L84.42,25.116 L84.896,24.976 L84.896,17.22 L87.416,17.22 L87.416,24.304 L88.144,24.08 L88.144,14.756 L91.084,14.756 L91.084,17.276 L92.204,17.276 L91.616,14.196 L84.616,14.196 L84.616,12.88 L91.364,12.88 L90.692,9.38 L93.632,9.38 Z M130.068,9.24 L129.284,10.948 L134.94,10.948 L134.296,12.236 L133.624,12.236 L133.624,16.52 L131.748,20.328 L134.744,26.32 L131.244,26.32 L130.068,23.772 L128.836,26.32 L125.364,26.32 L128.248,20.188 L125.308,14.308 L128.752,14.308 L129.928,16.66 L130.32,15.764 L130.32,12.236 L125.252,12.236 L126.792,9.24 L130.068,9.24 Z M17.196,25.094 L17.064,25.376 L16.806,25.376 L16.806,26.03 L16.98,25.706 L17.196,25.706 L17.196,25.094 Z M15.708,25.094 L15.576,25.376 L15.318,25.376 L15.318,26.03 L15.498,25.706 L15.708,25.706 L15.708,25.094 Z M55.2,10.276 L54.556,11.508 L49.796,11.508 L49.796,24.78 L55.452,24.78 L54.808,26.012 L40.948,26.012 L40.948,24.78 L46.716,24.78 L46.716,11.508 L41.452,11.508 L41.452,10.276 L55.2,10.276 Z M23.77,25.01 L23.884,25.646 L23.374,25.646 L23.254,25.01 L23.77,25.01 Z M22.54,25.208 L22.402,25.496 L21.346,25.496 L21.346,25.208 L22.54,25.208 Z M157.404,19.936 L156.396,20.86 L153.008,20.86 L153.008,25.312 L157.404,25.312 L157.404,19.936 Z M66.996,21.644 L62.964,21.644 L62.04,23.184 L64.868,23.828 L66.996,23.352 L66.996,21.644 Z M105.588,22.428 L104.916,23.772 L96.936,23.772 L96.936,22.428 L105.588,22.428 Z M78.952,22.148 L78.336,23.492 L71.084,23.492 L71.084,22.148 L78.952,22.148 Z M121.388,20.72 L115.816,20.72 L115.256,22.204 L118.756,23.072 L121.388,22.428 L121.388,20.72 Z M39.324,9.408 L36.636,14.364 L40.164,14.364 L37.028,20.244 L41.06,19.516 L40.22,21 L32.716,22.456 L36.132,15.596 L32.548,15.596 L35.74,9.408 L39.324,9.408 Z M103.712,9.352 L103.18,10.472 L105.728,10.472 L105.056,11.816 L100.408,11.816 L100.408,18.788 L105.728,18.788 L105.056,20.104 L97.328,20.104 L97.328,10.472 L99.848,10.472 L100.38,9.352 L103.712,9.352 Z M78.14,9.352 L77.692,10.22 L79.764,10.22 L79.148,11.536 L75.032,11.536 L75.032,12.768 L77.72,12.768 L78.896,16.1 L76.152,16.1 L75.032,12.88 L75.032,18.508 L79.764,18.508 L79.148,19.852 L72.148,19.852 L72.148,10.22 L74.584,10.22 L75.004,9.352 L78.14,9.352 Z M64.728,9.772 L64.728,15.708 L62.404,15.708 L62.404,15.512 L61.844,16.548 L63.72,16.548 L64.952,18.788 L66.66,15.708 L65.204,15.708 L65.204,9.772 L71.672,9.772 L71.672,15.708 L69.348,15.708 L69.348,15.512 L68.788,16.548 L70.664,16.548 L72.008,18.984 L69.432,18.984 L68.424,17.164 L67.444,18.984 L62.488,18.984 L61.508,17.164 L60.5,18.984 L57.924,18.984 L59.716,15.708 L58.26,15.708 L58.26,9.772 L64.728,9.772 Z M119.876,9.408 L119.876,12.964 L125.728,12.964 L124.972,14.168 L119.876,14.168 L119.876,18.648 L116.712,18.648 L116.712,14.168 L115.872,14.168 L114.724,18.228 L111.7,18.228 L112.848,14.168 L110.86,14.168 L110.86,12.964 L116.712,12.964 L116.712,9.408 L119.876,9.408 Z M123.964,14.868 L125.112,18.228 L121.752,18.228 L120.856,14.868 L123.964,14.868 Z M82.648,10.22 L82.648,17.948 L78.616,17.948 L77.972,16.632 L79.764,16.632 L79.764,10.22 L82.648,10.22 Z M108.78,10.472 L108.78,17.92 L104.468,17.92 L103.796,16.604 L105.728,16.604 L105.728,10.472 L108.78,10.472 Z M103.544,12.74 L104.804,16.072 L101.864,16.072 L100.632,12.74 L103.544,12.74 Z M69.348,9.772 L68.732,11.088 L67.528,11.088 L67.528,14.14 L68.34,12.628 L69.348,12.628 L69.348,9.772 Z M62.404,9.772 L61.788,11.088 L60.584,11.088 L60.584,14.14 L61.424,12.628 L62.404,12.628 L62.404,9.772 Z M157.404,9.576 L156.396,10.528 L149.284,10.528 L149.284,12.908 L157.404,12.908 L157.404,9.576 Z M115.06,9.828 L115.872,12.488 L112.708,12.488 L111.952,9.828 L115.06,9.828 Z M124.664,9.828 L123.908,12.488 L120.8,12.488 L121.5,9.828 L124.664,9.828 Z M96.46,9.38 L96.992,12.348 L94.612,12.348 L94.052,9.38 L96.46,9.38 Z M90.72,10.304 L90.076,11.648 L85.148,11.648 L85.148,10.304 L90.72,10.304 Z" id="形状结合" fill="#FFFFFF" fill-rule="nonzero"></path>
            <path d="M9.12027228,4 C10.7759386,4 13.0731871,4.77832746 14.4013506,6.5618221 C15.7295141,8.34531674 15.8689355,10.2811986 15.6680406,11.2415888 C15.4671458,12.201979 14.6698206,14.117268 12.4312999,15.4695328 C10.1927792,16.8217976 10.4156566,16.4712806 9.24640775,17.3582887 C8.07715895,18.2452969 6.10541819,19.786557 5.49563087,21.4644988 C4.88584354,23.1424405 4.61876217,24.5635666 5.23488006,26.3983181 C5.64562532,27.6214858 6.94075606,29.4535614 9.12027228,31.894545 C7.18160266,31.32142 5.33839334,29.9545268 3.59064432,27.7938653 C0.969020792,24.5528731 -5.80868686e-13,19.5142572 -5.80868686e-13,17.1985539 C-5.80868686e-13,14.8828507 0.704334769,11.9349464 1.2928206,10.7248676 C1.88130643,9.51478882 3.98570575,5.8642197 6.13459011,4.9321447 C7.00458017,4.49183233 7.67516372,4.22592012 8.14634077,4.13440806 C8.30531102,4.06590628 8.62995485,4.0211036 9.12027228,4 Z M19.9219082,9.09900577 C21.0326384,9.31658097 22.2855841,9.94089241 23.1412756,10.8741325 C23.9969671,11.8073726 24.4013036,12.7780339 24.5823484,14.0877185 C24.7633933,15.3974031 24.1456549,16.7123939 23.8219758,17.3559506 C23.4982967,17.9995073 22.690089,18.9484485 21.5818822,19.7426383 C20.4736753,20.5368282 18.7194567,20.8770595 17.9150504,21.0082893 C17.1106441,21.1395191 14.409385,21.0193769 12.9312479,20.5244734 C11.9458232,20.1945377 10.9687405,19.8044914 10,19.3543343 C11.1847378,19.3645244 12.0795345,19.2292291 12.6843901,18.9484485 C14.6255142,18.1097498 15.3609397,17.3421703 16.4032545,15.9666461 C17.4455692,14.5911218 17.4519714,11.9984956 17.3576603,11.4732595 C17.2633491,10.9480235 16.9962146,10.2540097 17.6813498,9.49221156 C17.7832174,9.3656002 17.9745893,9.23301814 18.1286558,9.16488941 C18.5759617,8.97236094 19.0668949,8.94583832 19.9219082,9.09900577 Z M28.25,4 C29.4926407,4 30.5,5.00735931 30.5,6.25 C30.5,7.49264069 29.4926407,8.5 28.25,8.5 C27.0073593,8.5 26,7.49264069 26,6.25 C26,5.00735931 27.0073593,4 28.25,4 Z M28.25,4.5 C27.2835017,4.5 26.5,5.28350169 26.5,6.25 C26.5,7.21649831 27.2835017,8 28.25,8 C29.2164983,8 30,7.21649831 30,6.25 C30,5.28350169 29.2164983,4.5 28.25,4.5 Z M28.390625,5.19212709 C28.5566406,5.19212709 28.6923828,5.20824037 28.7978516,5.24046693 C28.9033203,5.27269349 28.9892578,5.34056459 29.0556641,5.44408021 C29.1220703,5.54759584 29.1552734,5.66429505 29.1552734,5.79417787 C29.1552734,5.94261537 29.1123047,6.0666388 29.0263672,6.16624818 C28.9404297,6.26585755 28.8227539,6.33275209 28.6733398,6.36693177 C28.7978516,6.40680807 28.8976101,6.50331144 28.9726156,6.65644186 L29.0146484,6.75511537 L29.2299805,7.33958802 L28.9223633,7.33958802 L28.7202148,6.76683412 C28.684082,6.66527162 28.6240234,6.5822638 28.5400391,6.51781068 C28.4770508,6.46947084 28.4069214,6.43925843 28.3296509,6.42717347 L28.25,6.42113099 L27.7241211,6.42113099 L27.7241211,7.33958802 L27.4399414,7.33958802 L27.4399414,5.19212709 L28.390625,5.19212709 Z M28.4023438,5.42796693 L27.7241211,5.42796693 L27.7241211,6.16624818 L28.3583984,6.16624818 C28.5351562,6.16624818 28.6633301,6.13841615 28.7429199,6.08275209 C28.8225098,6.02708802 28.8623047,5.93089662 28.8623047,5.79417787 C28.8623047,5.55003724 28.7089844,5.42796693 28.4023438,5.42796693 Z M18,-2.27373675e-13 C19.1045695,-2.27373675e-13 20,0.8954305 20,2 C20,3.1045695 19.1045695,4 18,4 C16.8954305,4 16,3.1045695 16,2 C16,0.8954305 16.8954305,-2.27373675e-13 18,-2.27373675e-13 Z M18.75,1 C18.3357864,1 18,1.33578644 18,1.75 C18,2.16421356 18.3357864,2.5 18.75,2.5 C19.1642136,2.5 19.5,2.16421356 19.5,1.75 C19.5,1.33578644 19.1642136,1 18.75,1 Z" id="形状结合" fill="#FF0019"></path>
        </g>
    </g>
</svg>