<?xml version="1.0" encoding="UTF-8"?>
<svg width="61px" height="61px" viewBox="0 0 61 61" version="1.1" xmlns="http://www.w3.org/2000/svg" xmlns:xlink="http://www.w3.org/1999/xlink">
    <!-- Generator: Sketch 60 (88103) - https://sketch.com -->
    <title>zhiboyugao</title>
    <desc>Created with Sketch.</desc>
    <g id="页面-1" stroke="none" stroke-width="1" fill="none" fill-rule="evenodd">
        <g id="画板" transform="translate(-156.000000, -190.000000)" fill="#FF2A85">
            <g id="编组-8" transform="translate(156.615000, 190.000000)">
                <path d="M31.112,-1.77635684e-14 L60.385,29.273 L60.385,60.385 L-7.531753e-13,-1.77635684e-14 L31.112,-1.77635684e-14 Z M47.5687244,33.3709615 L44.3103763,36.6293095 L45.2098162,37.5287493 L45.6086244,37.1299411 L49.5627655,41.0840822 L49.1639573,41.4828905 L50.0633971,42.3823303 L53.3217452,39.1239822 L47.5687244,33.3709615 Z M47.6366066,35.1019589 L51.5907478,39.0561 L50.3943231,40.2525247 L46.440182,36.2983835 L47.6366066,35.1019589 Z M52.7277755,29.5186437 C51.599233,30.1210987 50.360382,30.3586866 49.0112222,30.2144368 L48.8415166,31.4363173 C49.5288244,31.4957143 50.2161322,31.487229 50.8864694,31.3938909 L52.7277755,33.235197 L51.6331742,34.3297983 L48.0948118,30.7914359 L47.2293131,31.6569346 L54.9848603,39.4124818 L55.850359,38.5469831 L52.5241287,35.2207528 L53.61873,34.1261515 L56.2915936,36.7990151 L57.1401218,35.950487 L54.4672581,33.2776234 L55.5703447,32.1745368 L54.6793902,31.2835822 L53.5763036,32.3866688 L52.2525997,31.0629649 C52.6768638,30.9102299 53.0926426,30.732039 53.5084213,30.5029364 L52.7277755,29.5186437 Z M42.0363209,31.487229 C42.1466296,32.6157714 42.1381443,33.5746082 42.0363209,34.3552541 L43.275172,34.3552541 C43.3175984,33.4982407 43.275172,32.5394039 43.1563781,31.5041996 L42.0363209,31.487229 Z M45.9056092,23.0528593 L45.0740517,23.8844169 L46.8135343,25.6238996 C46.5420053,25.8275463 46.2704763,26.0311931 45.9989473,26.2008987 L44.5988759,24.8008273 L40.4665439,28.9331593 L41.2981014,29.7647169 L44.6497876,26.4130307 L46.7795932,28.5428364 L43.4279071,31.8945225 L44.2594646,32.7260801 L48.3917967,28.593748 L46.8559607,27.0579121 C47.1274897,26.8882065 47.407504,26.693045 47.679033,26.4893983 L49.3166923,28.1270576 L50.1482499,27.2955 L45.9056092,23.0528593 Z M44.8704049,27.4312645 L43.3769954,28.924674 C42.6642317,29.5695554 41.9684387,29.9598783 41.2726456,30.1126134 C40.5938231,30.2144368 39.7283244,29.9938195 38.6676642,29.4592467 L38.3961352,30.6980978 C39.4992218,31.2581264 40.5089703,31.4702584 41.3999248,31.3429792 C42.3248205,31.1817589 43.275172,30.6556714 44.2255235,29.7732022 L45.718933,28.2797926 L44.8704049,27.4312645 Z M42.5963495,19.7435996 L41.7817625,20.5581866 L43.7758036,22.5522277 C43.2497162,22.6710216 42.7405993,22.7558745 42.2569382,22.7813303 C42.2739088,22.4249485 42.2823941,22.0600814 42.2739088,21.6612732 L41.2217339,21.4236853 C41.2217339,22.2043312 41.2047633,22.9170948 41.1623369,23.5704615 L39.7283244,22.1364489 L38.9137374,22.9510359 L40.0422798,24.0795784 L36.9621227,27.1597355 C36.7839318,27.3379264 36.6227114,27.3633822 36.4869469,27.2276177 C36.2578443,26.9985151 36.037227,26.7439567 35.8166097,26.4554571 L35.2056694,27.4397498 L36.037227,28.2713074 C36.5293733,28.7634537 37.0554608,28.7464831 37.5900335,28.2119104 L40.8823227,24.9196212 L41.4932629,25.5305615 C41.0011166,25.8020905 40.5513967,26.0142225 40.1356179,26.1584723 L40.5768525,27.1597355 C41.1283958,26.964574 41.798733,26.5997069 42.5963495,26.0736195 L43.1309222,25.5390468 L42.1211737,24.5292983 C42.1466296,24.3171662 42.1720854,24.0880636 42.189056,23.8504758 C43.0121283,23.8080494 43.9030828,23.646829 44.8449491,23.3668147 L45.5322568,22.6795069 L42.5963495,19.7435996 Z M35.0783902,11.7504645 L33.5680101,13.2608446 L32.6770556,12.3698901 L31.8370127,13.2099329 L32.7279673,14.1008875 L31.030911,15.7979437 C30.5557352,15.5773264 30.0890447,15.3312533 29.6478101,15.0597243 L28.9944435,16.1543256 C29.3762811,16.3325165 29.7581188,16.5107074 30.1484417,16.680413 L28.4259296,18.4029251 C28.2222828,18.6065719 28.0271214,18.6150572 27.8404452,18.428381 C27.653769,18.2417048 27.4670928,18.0210875 27.2889019,17.7750143 L26.6440205,18.8102186 L27.3567841,19.5229823 C27.925298,20.0914961 28.5022971,20.0914961 29.0792963,19.514497 L31.4212339,17.1725593 C31.7097335,17.2574121 32.0067183,17.3507502 32.3121885,17.4525736 L32.5497763,17.2149857 L32.3376443,18.1059403 L32.600688,18.1823078 L29.223546,21.5594498 L30.0296478,22.3655515 L30.3860296,22.0091697 L33.1013196,24.7244597 L32.7449378,25.0808416 L33.5510395,25.8869433 L37.0300049,22.4079779 C37.063946,22.5437424 37.1063724,22.6879922 37.1657694,22.8492126 L38.268856,22.5098013 C37.8106508,21.5085381 37.5476071,20.6175836 37.4797248,19.8369377 L38.9561638,21.3133766 L39.7198391,20.5497013 L38.7864582,19.6163204 C39.1598105,19.5314675 39.5501335,19.4126736 39.9489417,19.2684238 L39.4567954,18.2671606 C38.9731343,18.4962632 38.4979586,18.6829394 38.0142976,18.8441597 L37.5476071,18.3774693 L38.6252378,17.2998385 C39.4737659,18.0126022 40.2798677,18.5980866 41.0350577,19.0478065 L41.3235573,17.9447199 C39.8131772,16.9773978 38.1670326,15.6197528 36.3851235,13.8378437 L35.9184331,14.8136511 C36.5463439,15.4415619 37.1657694,16.0270463 37.7597391,16.5531338 L36.7415053,17.5713675 L36.2748149,17.1046771 C36.4954322,16.680413 36.6566525,16.2816048 36.7754465,15.925223 L35.7741833,15.4839883 C35.7232716,15.7724879 35.6384188,16.0609875 35.5281101,16.3579723 L34.7050378,15.5349 L33.9413625,16.2985753 L35.2905222,17.6477351 C34.5438175,17.6477351 33.7037746,17.435603 32.7534231,17.011339 L33.1776872,16.5870749 L32.2867326,16.3070606 L33.6104365,14.9833567 L34.2213768,15.594297 L35.0614196,14.7542541 L34.4504794,14.1433139 L35.9608595,12.6329338 L35.0783902,11.7504645 Z M33.4492162,22.4249485 L34.4250235,23.4007558 L33.8310538,23.9947255 L32.8552465,23.0189182 L33.4492162,22.4249485 Z M34.7474642,21.1267004 L35.7232716,22.1025078 L35.103846,22.7219333 L34.1280387,21.746126 L34.7474642,21.1267004 Z M31.7097335,20.6854658 L32.7025114,21.6782437 L32.1085417,22.2722134 L31.1157638,21.2794355 L31.7097335,20.6854658 Z M35.9608595,18.3180723 L35.97783,18.3350429 L34.9256551,19.3872178 L35.7317569,20.1933195 L36.7839318,19.1411446 L36.8009023,19.1581152 C36.6821084,20.0236139 36.7160495,20.9230537 36.9027257,21.8564346 L33.4237603,18.3774693 C34.3232002,18.5302043 35.163243,18.5047485 35.9608595,18.3180723 Z M33.0079815,19.3872178 L34.0007595,20.3799957 L33.3813339,20.9994212 L32.388556,20.0066433 L33.0079815,19.3872178 Z M25.2524344,3.21427146 L24.4208768,4.04582903 L27.4755781,7.10053033 L26.8646378,7.50782383 L24.9045378,5.54772384 L20.0085305,10.4437312 L18.8545322,9.28973292 L18.0484305,10.0958347 L25.6427573,17.6901615 L26.448859,16.8840598 L25.2524344,15.6876351 L30.1484417,10.7916277 L27.7725629,8.41574894 L28.3919885,8.01694072 L31.6842776,11.3092299 L32.5158352,10.4776723 L29.3593106,7.32114764 C29.5629573,7.15144202 29.7835746,6.98173639 30.0126772,6.80354548 L29.2405166,5.77682643 C28.9859582,5.98047319 28.7229144,6.19260522 28.4429002,6.40473725 L25.2524344,3.21427146 Z M21.3916313,10.8255689 L24.8705967,14.3045342 L24.3699651,14.8051658 L20.8909997,11.3262005 L21.3916313,10.8255689 Z M22.5965413,9.6206589 L26.0755067,13.0996243 L25.5663898,13.6087411 L22.0874244,10.1297758 L22.5965413,9.6206589 Z M23.7844807,8.4327195 L27.2634461,11.9116849 L26.7712997,12.4038312 L23.2923344,8.92486582 L23.7844807,8.4327195 Z M25.0063612,7.21083898 L28.4853266,10.6898043 L27.9677244,11.2074065 L24.488759,7.72844115 L25.0063612,7.21083898 Z" id="形状结合"></path>
            </g>
        </g>
    </g>
</svg>