<?xml version="1.0" encoding="UTF-8"?>
<svg width="61px" height="62px" viewBox="0 0 61 62" version="1.1" xmlns="http://www.w3.org/2000/svg" xmlns:xlink="http://www.w3.org/1999/xlink">
    <!-- Generator: Sketch 60 (88103) - https://sketch.com -->
    <title>zhibohuigu</title>
    <desc>Created with Sketch.</desc>
    <g id="页面-1" stroke="none" stroke-width="1" fill="none" fill-rule="evenodd">
        <g id="画板" transform="translate(-250.000000, -190.000000)" fill="#A2A2A2">
            <g id="形状结合-2" transform="translate(251.000000, 190.000000)">
                <path d="M31.112,-1.03028697e-13 L60.385,29.273 L60.385,60.385 L-9.30810984e-13,-1.03028697e-13 L31.112,-1.03028697e-13 Z M50.5055363,40.1859734 C50.6413008,41.2720894 50.6497861,42.1800145 50.5649333,42.9097487 L51.7528726,42.9097487 C51.7528726,42.0951617 51.6849904,41.1957218 51.5407406,40.2199145 L50.5055363,40.1859734 Z M54.9433384,32.0655591 L54.145722,32.8631755 L55.4863964,34.20385 C55.2233527,34.415982 54.9518237,34.6196288 54.6633242,34.806305 L53.5517523,33.6947331 L49.3685086,37.8779768 L50.1491545,38.6586227 L53.602664,35.2051132 L55.2997203,36.9021695 L51.795299,40.4065907 L52.5759449,41.1872366 L56.8101003,36.9530812 L55.4779112,35.620892 C55.7579255,35.4427011 56.0379397,35.2475396 56.317954,35.0354076 L57.7689371,36.4863907 L58.5665536,35.6887742 L54.9433384,32.0655591 Z M53.7044874,36.104553 L52.2280484,37.580992 C51.4813436,38.2598145 50.7516094,38.7010491 50.0303605,38.8962106 C49.351538,39.0319751 48.4860393,38.8622695 47.4338644,38.3870937 L47.179306,39.541092 C48.2484514,40.0332383 49.2327441,40.1859734 50.1067281,40.0077824 C51.0231384,39.8041357 51.9819752,39.2356218 52.9662679,38.3192115 L54.4427068,36.8427725 L53.7044874,36.104553 Z M50.6752419,31.4461335 L46.4919982,35.6293773 C46.3138073,35.8075682 46.0762194,35.8415093 45.7877198,35.7227154 L45.3804263,36.7918608 C46.4071454,37.3603747 47.3999233,37.793124 48.3587601,38.0731383 L48.9527298,37.190669 C48.3587601,37.0039928 47.7563051,36.7748902 47.1368796,36.5118465 L50.709183,32.9395431 L51.3201233,33.5504833 L49.7503462,35.1202604 C49.6400376,35.230569 49.5212436,35.230569 49.4024497,35.1117751 C49.2836558,34.9929812 49.1648618,34.8572167 49.0460679,34.7044816 L48.5539216,35.6039214 C48.6896861,35.773627 48.8169653,35.9178768 48.9527298,36.0536413 C49.410935,36.5118465 49.8521696,36.5288171 50.2764337,36.104553 L52.8050475,33.5759392 L50.6752419,31.4461335 Z M51.2437558,28.3659764 L47.6969081,31.912824 C46.2289545,33.3468366 44.9391917,34.3141586 43.8191346,34.8232755 L43.8955021,36.0875825 C45.3210294,35.5105833 46.8738359,34.415982 48.5624068,32.7783227 L51.2776969,30.0630327 L53.8572224,32.6425582 L54.68878,31.8110006 L51.2437558,28.3659764 Z M42.6227099,20.0504007 L35.4017354,27.2713751 L36.2587489,28.1283885 L36.5302779,27.8568595 L41.8250934,33.1516751 L41.5535644,33.4232041 L42.4105778,34.2802175 L49.6315523,27.0592431 L42.6227099,20.0504007 Z M42.6990774,21.68806 L47.993893,26.9828755 L42.6057393,32.3710292 L37.3109237,27.0762136 L42.6990774,21.68806 Z M42.5463424,23.7075569 L39.3643618,26.8895374 L42.8009008,30.3260764 L45.9828813,27.1440959 L42.5463424,23.7075569 Z M42.6311952,25.2688487 L44.4131043,27.0507578 L42.7075627,28.7562993 L40.9256536,26.9743903 L42.6311952,25.2688487 Z M35.1386917,11.7008838 L33.6283116,13.2112639 L32.7373571,12.3203093 L31.8973142,13.1603522 L32.7882688,14.0513067 L31.0912125,15.748363 C30.6160367,15.5277457 30.1493463,15.2816725 29.7081116,15.0101435 L29.054745,16.1047448 C29.4365826,16.2829357 29.8184203,16.4611266 30.2087432,16.6308323 L28.4862311,18.3533444 C28.2825844,18.5569911 28.0874229,18.5654764 27.9007467,18.3788002 C27.7140705,18.192124 27.5273943,17.9715067 27.3492034,17.7254336 L26.704322,18.7606379 L27.4170857,19.4734015 C27.9855995,20.0419154 28.5625986,20.0419154 29.1395978,19.4649162 L31.4815354,17.1229786 C31.770035,17.2078314 32.0670199,17.3011695 32.37249,17.4029929 L32.6100779,17.165405 L32.3979458,18.0563595 L32.6609896,18.1327271 L29.2838476,21.5098691 L30.0899493,22.3159708 L30.4463311,21.959589 L33.1616212,24.674879 L32.8052393,25.0312608 L33.6113411,25.8373626 L37.0903064,22.3583972 C37.1242476,22.4941617 37.166674,22.6384115 37.2260709,22.7996318 L38.3291575,22.4602206 C37.8709523,21.4589574 37.6079086,20.5680028 37.5400263,19.7873569 L39.0164653,21.2637959 L39.7801406,20.5001206 L38.8467597,19.5667396 C39.2201121,19.4818868 39.610435,19.3630929 40.0092432,19.2188431 L39.5170969,18.2175799 C39.0334359,18.4466825 38.5582601,18.6333587 38.0745991,18.794579 L37.6079086,18.3278885 L38.6855393,17.2502578 C39.5340675,17.9630214 40.3401692,18.5485059 41.0953592,18.9982258 L41.3838588,17.8951392 C39.8734787,16.9278171 38.2273341,15.5701721 36.445425,13.788263 L35.9787346,14.7640704 C36.6066454,15.3919812 37.2260709,15.9774656 37.8200406,16.503553 L36.8018069,17.5217868 L36.3351164,17.0550963 C36.5557337,16.6308323 36.716954,16.232024 36.835748,15.8756422 L35.8344848,15.4344076 C35.7835731,15.7229072 35.6987203,16.0114067 35.5884116,16.3083916 L34.7653393,15.4853193 L34.001664,16.2489946 L35.3508237,17.5981543 C34.604119,17.5981543 33.7640761,17.3860223 32.8137246,16.9617582 L33.2379887,16.5374942 L32.3470341,16.2574799 L33.670738,14.933776 L34.2816783,15.5447162 L35.1217211,14.7046734 L34.5107809,14.0937331 L36.021161,12.583353 L35.1386917,11.7008838 Z M33.5095177,22.3753678 L34.485325,23.3511751 L33.8913553,23.9451448 L32.915548,22.9693374 L33.5095177,22.3753678 Z M34.8077657,21.0771197 L35.7835731,22.0529271 L35.1641476,22.6723526 L34.1883402,21.6965452 L34.8077657,21.0771197 Z M31.770035,20.6358851 L32.7628129,21.628663 L32.1688432,22.2226327 L31.1760653,21.2298548 L31.770035,20.6358851 Z M36.021161,18.2684916 L36.0381315,18.2854621 L34.9859566,19.337637 L35.7920584,20.1437388 L36.8442333,19.0915639 L36.8612038,19.1085344 C36.7424099,19.9740331 36.776351,20.8734729 36.9630272,21.8068539 L33.4840618,18.3278885 C34.3835017,18.4806236 35.2235445,18.4551678 36.021161,18.2684916 Z M33.0682831,19.337637 L34.061061,20.3304149 L33.4416354,20.9498405 L32.4488575,19.9570626 L33.0682831,19.337637 Z M25.3127359,3.16469072 L24.4811783,3.9962483 L27.5358796,7.05094959 L26.9249393,7.4582431 L24.9648393,5.4981431 L20.068832,10.3941505 L18.9148337,9.24015219 L18.108732,10.0462539 L25.7030588,17.6405807 L26.5091606,16.834479 L25.3127359,15.6380543 L30.2087432,10.742047 L27.8328644,8.3661682 L28.45229,7.96735998 L31.7445792,11.2596492 L32.5761367,10.4280916 L29.4196121,7.27156691 C29.6232588,7.10186128 29.8438761,6.93215565 30.0729787,6.75396474 L29.3008181,5.7272457 C29.0462597,5.93089245 28.783216,6.14302448 28.5032017,6.35515652 L25.3127359,3.16469072 Z M21.4519329,10.7759881 L24.9308982,14.2549535 L24.4302666,14.7555851 L20.9513013,11.2766197 L21.4519329,10.7759881 Z M22.6568428,9.57107816 L26.1358082,13.0500435 L25.6266913,13.5591604 L22.1477259,10.080195 L22.6568428,9.57107816 Z M23.8447822,8.38313877 L27.3237476,11.8621041 L26.8316012,12.3542505 L23.3526359,8.87528509 L23.8447822,8.38313877 Z M25.0666627,7.16125825 L28.5456281,10.6402236 L28.0280259,11.1578258 L24.5490606,7.67886041 L25.0666627,7.16125825 Z" id="形状结合"></path>
            </g>
        </g>
    </g>
</svg>