<?xml version="1.0" encoding="UTF-8"?>
<svg width="61px" height="62px" viewBox="0 0 61 62" version="1.1" xmlns="http://www.w3.org/2000/svg" xmlns:xlink="http://www.w3.org/1999/xlink">
    <!-- Generator: Sketch 60 (88103) - https://sketch.com -->
    <title>zhengzaizhibo </title>
    <desc>Created with Sketch.</desc>
    <g id="页面-1" stroke="none" stroke-width="1" fill="none" fill-rule="evenodd">
        <g id="画板" transform="translate(-328.000000, -190.000000)" fill="#FF2A85">
            <path d="M359.112,190 L389,219.888 L389,251 L328,190 L359.112,190 Z M380.0601,218.646116 L378.54972,220.156496 L377.658766,219.265541 L376.818723,220.105584 L377.709677,220.996539 L376.012621,222.693595 C375.537445,222.472977 375.070755,222.226904 374.62952,221.955375 L373.976153,223.049977 C374.357991,223.228168 374.739829,223.406358 375.130152,223.576064 L373.40764,225.298576 C373.203993,225.502223 373.008831,225.510708 372.822155,225.324032 C372.635479,225.137356 372.448803,224.916739 372.270612,224.670665 L371.62573,225.70587 L372.338494,226.418633 C372.907008,226.987147 373.484007,226.987147 374.061006,226.410148 L376.402944,224.06821 C376.691443,224.153063 376.988428,224.246401 377.293898,224.348225 L377.531486,224.110637 L377.319354,225.001591 L377.582398,225.077959 L374.205256,228.455101 L375.011358,229.261203 L375.36774,228.904821 L378.08303,231.620111 L377.726648,231.976493 L378.532749,232.782594 L382.011715,229.303629 C382.045656,229.439393 382.088082,229.583643 382.147479,229.744864 L383.250566,229.405452 C382.792361,228.404189 382.529317,227.513235 382.461435,226.732589 L383.937874,228.209028 L384.701549,227.445352 L383.768168,226.511971 C384.14152,226.427119 384.531843,226.308325 384.930652,226.164075 L384.438505,225.162812 C383.954844,225.391914 383.479669,225.57859 382.996007,225.739811 L382.529317,225.27312 L383.606948,224.19549 C384.455476,224.908253 385.261578,225.493738 386.016768,225.943458 L386.305267,224.840371 C384.794887,223.873049 383.148743,222.515404 381.366833,220.733495 L380.900143,221.709302 C381.528054,222.337213 382.147479,222.922697 382.741449,223.448785 L381.723215,224.467019 L381.256525,224.000328 C381.477142,223.576064 381.638362,223.177256 381.757156,222.820874 L380.755893,222.379639 C380.704982,222.668139 380.620129,222.956639 380.50982,223.253623 L379.686748,222.430551 L378.923072,223.194226 L380.272232,224.543386 C379.525527,224.543386 378.685485,224.331254 377.735133,223.90699 L378.159397,223.482726 L377.268443,223.202712 L378.592146,221.879008 L379.203087,222.489948 L380.04313,221.649905 L379.432189,221.038965 L380.942569,219.528585 L380.0601,218.646116 Z M378.430926,229.3206 L379.406733,230.296407 L378.812764,230.890377 L377.836956,229.914569 L378.430926,229.3206 Z M379.729174,228.022351 L380.704982,228.998159 L380.085556,229.617584 L379.109749,228.641777 L379.729174,228.022351 Z M376.691443,227.581117 L377.684221,228.573895 L377.090252,229.167864 L376.097474,228.175087 L376.691443,227.581117 Z M380.942569,225.213723 L380.95954,225.230694 L379.907365,226.282869 L380.713467,227.088971 L381.765642,226.036796 L381.782612,226.053766 C381.663818,226.919265 381.697759,227.818705 381.884436,228.752086 L378.40547,225.27312 C379.30491,225.425855 380.144953,225.4004 380.942569,225.213723 Z M377.989691,226.282869 L378.982469,227.275647 L378.363044,227.895072 L377.370266,226.902294 L377.989691,226.282869 Z M370.234144,210.109923 L369.402587,210.94148 L372.457288,213.996181 L371.846348,214.403475 L369.886248,212.443375 L364.99024,217.339382 L363.836242,216.185384 L363.03014,216.991486 L370.624467,224.585813 L371.430569,223.779711 L370.234144,222.583286 L375.130152,217.687279 L372.754273,215.3114 C372.95792,215.175635 373.170052,215.048356 373.373698,214.912592 L376.665988,218.204881 L377.497545,217.373323 L374.34102,214.216799 C374.544667,214.047093 374.765285,213.877387 374.994387,213.699197 L374.222227,212.672477 C373.967668,212.876124 373.704624,213.088256 373.42461,213.300388 L370.234144,210.109923 Z M366.373341,217.72122 L369.852307,221.200185 L369.351675,221.700817 L365.87271,218.221852 L366.373341,217.72122 Z M367.578251,216.51631 L371.057217,219.995275 L370.5481,220.504392 L367.069134,217.025427 L367.578251,216.51631 Z M368.766191,215.328371 L372.245156,218.807336 L371.75301,219.299482 L368.274044,215.820517 L368.766191,215.328371 Z M369.988071,214.10649 L373.467037,217.585455 L372.949434,218.103058 L369.470469,214.624092 L369.988071,214.10649 Z M360.968217,207.207956 L360.102718,208.073455 L361.927054,209.89779 L359.941498,211.883346 L357.811692,209.753541 L356.946194,210.619039 L362.283436,215.956281 L363.148934,215.090783 L360.840938,212.782786 L362.826494,210.79723 L364.769623,212.74036 L365.635122,211.874861 L363.691992,209.931732 L365.151461,208.472263 L364.252021,207.572823 L362.792553,209.032292 L360.968217,207.207956 Z M361.307628,201.947082 L360.44213,202.812581 L362.4192,204.789651 C360.849423,205.2224 359.186308,205.358165 357.446825,205.196945 L357.27712,206.503678 C357.735325,206.537619 358.185045,206.563075 358.634765,206.57156 L355.461269,209.745055 L356.335253,210.619039 L360.484556,206.469737 C361.485819,206.350943 362.470112,206.130326 363.437434,205.807885 L367.934633,210.305084 L368.800132,209.439585 L364.693256,205.332709 C365.159946,205.120577 365.618151,204.89996 366.076356,204.645401 L365.270255,203.618682 C364.761138,203.890211 364.243536,204.136284 363.708963,204.348416 L361.307628,201.947082 Z M353.883007,193.147845 L353.017508,194.013344 L356.131607,197.127442 L350.684056,202.574993 L349.173676,201.064613 L353.093876,197.144413 L352.228377,196.278914 L348.308177,200.199114 L347.069326,198.960263 L346.203827,199.825761 L353.849066,207.471 L354.714565,206.605501 L351.575011,203.465947 L354.010286,201.030671 L356.335253,203.355639 L357.183782,202.50711 L354.858814,200.182143 L357.022561,198.018397 L359.805733,200.801569 L360.671232,199.93607 L353.883007,193.147845 Z" id="形状结合"></path>
        </g>
    </g>
</svg>