<?xml version="1.0" standalone="no"?><!DOCTYPE svg PUBLIC "-//W3C//DTD SVG 1.1//EN" "http://www.w3.org/Graphics/SVG/1.1/DTD/svg11.dtd"><svg t="1624246541289" class="icon" viewBox="0 0 1024 1024" version="1.1" xmlns="http://www.w3.org/2000/svg" p-id="2375" xmlns:xlink="http://www.w3.org/1999/xlink" width="200" height="200"><defs><style type="text/css"></style></defs><path d="M512.5240625 32c-265.09781250000003 0-480 214.903125-480 480s214.903125 480 480 480 480-214.903125 480-480-214.9040625-480-480-480z m9.4171875 285.4996875s50.611875-37.042500000000004 122.4159375-37.042500000000004c71.81156250000001 0 122.4375 41.6821875 122.4375 41.6821875v363.515625s-50.6259375-35.9053125-122.4375-35.9053125c-71.8040625 0-122.4159375 35.9053125-122.4159375 35.9053125V317.49968750000005z m-263.7103125 0s50.6315625-37.042500000000004 122.45625000000001-37.042500000000004c71.8078125 0 122.41875000000002 41.6821875 122.41875000000002 41.6821875v363.515625s-50.6109375-35.9053125-122.41875000000002-35.9053125c-71.8246875 0-122.45625000000001 35.9053125-122.45625000000001 35.9053125V317.49968750000005z m546.23625 407.521875H578.45375l1.1803124999999999 18.521250000000002H446.59625v-18.521250000000002H220.57906250000002V354.5440625h18.83625v351.950625h226.0171875v18.526875H559.6156249999999v-18.526875h226.0153125V354.5440625h18.8353125v370.47749999999996z" fill="#ffffff" p-id="2376"></path></svg>