<?xml version="1.0" standalone="no"?><!DOCTYPE svg PUBLIC "-//W3C//DTD SVG 1.1//EN" "http://www.w3.org/Graphics/SVG/1.1/DTD/svg11.dtd"><svg t="1622796401211" class="icon" viewBox="0 0 1024 1024" version="1.1" xmlns="http://www.w3.org/2000/svg" p-id="35800" xmlns:xlink="http://www.w3.org/1999/xlink" width="200" height="200"><defs><style type="text/css"></style></defs><path d="M316.672 813.664a64.64 64.64 0 1 1 0 129.216 64.64 64.64 0 0 1 0-129.216z m480.128 0a64.64 64.64 0 1 1 0 129.216 64.64 64.64 0 0 1 0-129.216zM118.464 106.688l4.32 0.448 88.736 15.36a32 32 0 0 1 25.696 24.128l0.736 4.736 10.016 119.52h601.472a89.216 89.216 0 0 1 88.992 95.584l-0.704 6.4-40.48 279.84a108.992 108.992 0 0 1-100.8 93.12l-7.04 0.256H323.84a108.896 108.896 0 0 1-107.712-92.864l-0.832-7.008L176.256 181.344l-64.384-11.136a32 32 0 0 1-26.528-32.64l0.448-4.352a32 32 0 0 1 32.64-26.56z m730.976 228.192H253.344l25.696 306.016a44.896 44.896 0 0 0 39.84 40.896l4.96 0.288h465.6c20.576 0 38.304-13.984 43.456-33.568l1.024-4.992 40.48-279.808a25.216 25.216 0 0 0-21.184-28.544l-3.776-0.288z m-128.448 93.696a32 32 0 0 1 4.352 63.712l-4.352 0.32h-118.304a32 32 0 0 1-4.352-63.744l4.352-0.288h118.304z" p-id="35801" fill="#8b8b8b"></path></svg>