<?xml version="1.0" standalone="no"?><!DOCTYPE svg PUBLIC "-//W3C//DTD SVG 1.1//EN" "http://www.w3.org/Graphics/SVG/1.1/DTD/svg11.dtd"><svg t="1624114485127" class="icon" viewBox="0 0 1117 1024" version="1.1" xmlns="http://www.w3.org/2000/svg" p-id="1657" xmlns:xlink="http://www.w3.org/1999/xlink" width="218.1640625" height="200"><defs><style type="text/css"></style></defs><path d="M971.522483 957.201052h-381.919392V512.36443h387.034969v465.036595l-5.071854-20.243696zM140.787687 512.36443h381.919391v444.836622H140.918855V512.36443zM70.437566 308.484622h452.400681v137.114964H70.437566V308.484622z m971.522483 137.114964H589.603091V308.484622h452.356958v137.114964zM270.688375 67.527808c85.303347 0 177.995861 100.081682 226.222202 170.519248H378.24667c-81.543179 0-170.519248-40.793451-170.519248-118.663907 0-37.033283 18.538503-51.85534 63.004676-51.855341z m571.108311 0c44.466173 0 63.004676 18.538503 63.004676 55.571786 0 74.328903-85.303347 118.663907-166.846526 118.663907h-118.70763c48.095172-74.328903 137.246133-174.235693 222.54948-174.235693z m270.688375 240.956814a67.376964 67.376964 0 0 0-70.481289-66.546229h-118.663907a168.114489 168.114489 0 0 0 51.85534-118.663908c0-59.288231-33.316838-122.424075-133.442242-122.424075-126.14052 0-233.655092 133.485965-285.554155 207.552531C504.343467 134.292652 396.960064 0.806687 267.015653 0.806687a119.713256 119.713256 0 0 0-133.529688 122.424075A154.298058 154.298058 0 0 0 185.385028 241.938393H70.437566A69.694277 69.694277 0 0 0 0 308.484622V512.36443h70.437566v444.836622A67.376964 67.376964 0 0 0 140.918855 1023.922173h834.320073a69.694277 69.694277 0 0 0 70.481289-66.721121V512.36443h70.437566l-3.672722-203.879808z m0 0" p-id="1658" fill="#ffffff"></path></svg>