<?xml version="1.0" standalone="no"?><!DOCTYPE svg PUBLIC "-//W3C//DTD SVG 1.1//EN" "http://www.w3.org/Graphics/SVG/1.1/DTD/svg11.dtd"><svg t="1622796253424" class="icon" viewBox="0 0 1024 1024" version="1.1" xmlns="http://www.w3.org/2000/svg" p-id="32040" xmlns:xlink="http://www.w3.org/1999/xlink" width="200" height="200"><defs><style type="text/css"></style></defs><path d="M513.454 953.21c-26.008 0-52.04-2.376-77.904-7.127-13.445-2.47-22.343-15.37-19.872-28.816 2.47-13.444 15.37-22.341 28.816-19.872 44.11 8.103 88.761 8.403 132.717 0.894 45.316-7.741 88.628-23.605 128.733-47.145l0.185-0.106c46.234-26.607 85.825-61.437 117.67-103.522 30.737-40.62 53.016-86.261 66.217-135.655 13.154-49.22 16.625-99.66 10.317-149.92-6.527-51.987-23.29-101.507-49.826-147.184-25.071-42.982-55.391-78.565-92.672-108.744-10.624-8.602-12.264-24.187-3.663-34.811 8.601-10.623 24.185-12.266 34.81-3.664 42.02 34.017 76.139 74.027 104.306 122.314 29.915 51.493 48.802 107.304 56.16 165.923 7.11 56.63 3.203 113.445-11.609 168.865-14.862 55.606-39.95 106.997-74.566 152.745-35.85 47.376-80.377 86.57-132.353 116.498-45.262 26.553-94.17 44.451-145.372 53.2a427.706 427.706 0 0 1-72.094 6.126zM224.072 836.623a24.667 24.667 0 0 1-16.883-6.657c-32.516-30.348-57.627-62.712-76.753-98.925-29.744-51.332-48.543-106.987-55.88-165.438-7.11-56.63-3.203-113.444 11.608-168.865 14.86-55.607 39.95-106.997 74.566-152.745 35.87-47.407 80.435-86.622 132.453-116.558 72.98-42.25 156.952-62.392 242.754-58.2 13.654 0.664 24.183 12.273 23.517 25.926-0.667 13.654-12.284 24.181-25.927 23.516-76.269-3.72-150.825 14.133-215.596 51.632-46.29 26.639-85.88 61.469-117.725 103.554-30.738 40.62-53.016 86.262-66.217 135.656-13.155 49.219-16.625 99.659-10.316 149.919 6.526 51.987 23.29 101.506 49.825 147.182 0.173 0.299 0.34 0.6 0.5 0.906 16.532 31.409 38.437 59.623 66.968 86.25 9.993 9.328 10.533 24.99 1.206 34.983-4.874 5.223-11.48 7.864-18.1 7.864zM513.454 958.16c-26.248 0-52.76-2.425-78.798-7.208-7.803-1.432-14.58-5.819-19.085-12.35-4.504-6.531-6.196-14.426-4.762-22.229 1.433-7.802 5.819-14.58 12.35-19.084 6.531-4.505 14.425-6.196 22.229-4.763 43.535 7.998 87.607 8.294 130.989 0.883 44.721-7.64 87.471-23.296 127.061-46.535l0.264-0.15c45.616-26.253 84.708-60.643 116.149-102.194 30.35-40.107 52.347-85.174 65.382-133.947 12.988-48.6 16.415-98.401 10.187-148.025-6.443-51.327-22.995-100.217-49.194-145.314-24.765-42.458-54.7-77.586-91.506-107.383-12.73-10.306-14.701-29.045-4.397-41.773 10.306-12.729 29.045-14.7 41.773-4.397 42.495 34.401 76.993 74.853 105.468 123.668 30.246 52.063 49.354 108.517 56.795 167.8 7.188 57.27 3.24 114.722-11.738 170.76-15.029 56.229-40.397 108.194-75.4 154.454-36.252 47.906-81.279 87.54-133.831 117.8-45.746 26.836-95.219 44.94-147.01 53.789a434.248 434.248 0 0 1-72.926 6.198z m-73.473-56.226c-3.977 0-7.856 1.2-11.2 3.505a19.671 19.671 0 0 0-8.233 12.724 19.664 19.664 0 0 0 3.174 14.817 19.67 19.67 0 0 0 12.724 8.234c25.45 4.675 51.36 7.045 77.009 7.045 23.764 0 47.739-2.037 71.26-6.056 50.607-8.646 98.955-26.34 143.7-52.589 51.433-29.615 95.465-68.372 130.91-115.215 34.23-45.235 59.036-96.05 73.733-151.037 14.645-54.798 18.507-110.977 11.48-166.97-7.276-57.958-25.96-113.153-55.53-164.053-27.855-47.753-61.593-87.32-103.14-120.954-8.483-6.869-20.977-5.553-27.85 2.932-6.868 8.485-5.554 20.978 2.932 27.85 37.755 30.563 68.448 66.576 93.834 110.097 26.876 46.26 43.851 96.409 50.46 149.061 6.39 50.897 2.875 101.974-10.444 151.814-13.368 50.017-35.927 96.234-67.052 137.365-32.246 42.616-72.334 77.884-119.148 104.826l-0.118 0.067c-40.655 23.863-84.53 39.93-130.436 47.773-44.53 7.605-89.766 7.301-134.444-0.905a20.093 20.093 0 0 0-3.621-0.331z m-215.91-60.358a29.601 29.601 0 0 1-20.26-7.99c-32.904-30.71-58.324-63.47-77.708-100.146-30.048-51.882-49.044-108.142-56.46-167.218-7.189-57.266-3.239-114.718 11.738-170.76 15.026-56.225 40.394-108.192 75.4-154.454 36.276-47.94 81.336-87.593 133.932-117.86 73.824-42.74 158.7-63.095 245.466-58.857 16.357 0.797 29.016 14.753 28.22 31.112-0.776 15.867-13.934 28.254-29.65 28.255-0.486 0-0.974-0.013-1.465-0.036-75.317-3.675-148.934 13.953-212.873 50.972-45.705 26.302-84.816 60.704-116.258 102.256-30.35 40.106-52.347 85.173-65.382 133.948-12.989 48.597-16.416 98.399-10.186 148.023 6.441 51.323 22.992 100.212 49.194 145.312 0.21 0.364 0.41 0.724 0.602 1.09 16.266 30.907 37.843 58.691 65.962 84.935 5.8 5.413 9.144 12.761 9.418 20.69 0.273 7.93-2.558 15.49-7.97 21.288a29.794 29.794 0 0 1-21.72 9.44z m289.65-767.932c-77.159 0-152.117 19.904-218.059 58.078-51.45 29.609-95.516 68.386-130.985 115.26-34.23 45.239-59.037 96.054-73.731 151.037-14.645 54.801-18.508 110.979-11.479 166.97 7.254 57.787 25.843 112.82 55.252 163.573l0.094 0.17c18.865 35.719 43.645 67.65 75.753 97.618a19.733 19.733 0 0 0 13.507 5.326c5.551 0 10.694-2.235 14.479-6.29a19.671 19.671 0 0 0 5.314-14.194 19.672 19.672 0 0 0-6.278-13.793c-28.944-27.013-51.176-55.656-67.97-87.564-0.131-0.248-0.265-0.49-0.404-0.73-26.869-46.25-43.846-96.399-50.454-149.048-6.39-50.898-2.875-101.977 10.445-151.813 13.368-50.018 35.927-96.235 67.053-137.366C228.505 228.26 268.61 192.98 315.46 166.02c65.582-37.969 141.082-56.053 218.306-52.286 10.89 0.534 20.21-7.907 20.742-18.813 0.532-10.905-7.908-20.21-18.813-20.74a449.73 449.73 0 0 0-21.976-0.538zM489.27 425.45l-85.241-90.925c-11.366-11.365-9.471-30.307 1.894-41.672 11.366-11.366 30.308-9.472 41.673 1.894l85.241 90.924c11.366 11.365 9.471 30.307-1.894 41.672-13.26 9.471-30.308 9.471-41.673-1.893z m21.208 13.686c-9.136 0-17.946-3.423-24.709-10.186l-0.111-0.115-85.188-90.867c-12.835-12.904-11.968-34.693 1.952-48.615 12.897-12.897 34.732-12.048 48.673 1.894l0.11 0.114 85.19 90.868c12.835 12.903 11.966 34.693-1.952 48.614l-0.29 0.29-0.333 0.238c-7.274 5.196-15.429 7.765-23.342 7.765z m-17.654-17.133c9.185 9.133 23.157 9.739 34.902 1.551 9.64-9.929 10.406-25.585 1.61-34.382l-0.11-0.115-85.185-90.863c-9.914-9.858-25.75-10.708-34.617-1.84-9.91 9.91-10.778 25.788-1.895 34.672l0.111 0.114 85.184 90.863z m0.235-36.333l90.923-85.24c11.365-11.366 30.307-9.472 41.673 1.894 9.47 11.366 9.47 28.413-1.894 39.779l-90.924 85.241c-11.366 11.366-30.308 11.366-41.673 0-11.366-11.366-9.471-30.309 1.895-41.674zM512 440.818c-9.263 0-17.905-3.542-24.336-9.975-6.407-6.407-9.61-15.16-9.018-24.645 0.556-8.892 4.532-17.649 10.912-24.028l0.114-0.11 90.87-85.19c12.904-12.835 34.694-11.967 48.614 1.953l0.304 0.332c11.464 13.76 10.52 33.728-2.197 46.448l-0.115 0.111-90.868 85.188c-6.427 6.395-15.046 9.916-24.28 9.916z m-15.496-51.593c-4.665 4.691-7.572 11.099-7.977 17.591-0.413 6.61 1.767 12.657 6.137 17.028 4.562 4.562 10.719 7.074 17.336 7.074 6.618 0 12.775-2.512 17.338-7.074l0.114-0.11 90.863-85.185c8.969-9.025 9.679-23.108 1.68-32.883-9.921-9.76-25.675-10.572-34.512-1.735l-0.114 0.11-90.865 85.184z m269.323-244.123l128.809 24.626c15.153 3.789 26.519 18.942 22.73 34.096v1.894c-3.789 15.154-18.942 26.52-34.096 22.73l-128.808-24.625c-15.154-3.789-26.52-18.943-22.73-34.096v-1.894c3.788-15.153 18.942-26.52 34.095-22.731z m123.425 87.056c-2.216 0-4.432-0.268-6.62-0.807l-128.89-24.647c-8.08-2.02-15.44-7.115-20.191-13.976-4.96-7.166-6.656-15.446-4.79-23.356v-1.905l0.09-0.354c4.37-17.479 21.586-28.868 37.614-24.913l128.89 24.646c8.081 2.021 15.44 7.115 20.191 13.978 4.96 7.166 6.656 15.445 4.79 23.355v1.905l-0.09 0.354c-2.02 8.08-7.115 15.44-13.977 20.191-5.266 3.646-11.135 5.527-17.017 5.529z m-134.148-31.236l128.887 24.645c6.34 1.586 13.05 0.226 18.899-3.822 5.595-3.874 9.774-9.837 11.506-16.402v-1.885l0.09-0.354c1.584-6.338 0.226-13.05-3.823-18.899-3.927-5.671-9.998-9.887-16.669-11.575l-128.887-24.645c-12.83-3.208-26.674 6.035-30.406 20.223v1.885l-0.09 0.355c-1.584 6.338-0.226 13.05 3.824 18.899 3.927 5.67 9.998 9.886 16.669 11.575zM119.895 770.2l128.807 24.626c15.154 3.789 26.52 18.942 22.73 34.096v1.894c-3.788 15.154-18.942 26.52-34.095 22.73L108.53 828.923c-15.154-3.789-26.52-18.942-22.73-34.096v-1.893c1.892-15.156 18.94-26.522 34.094-22.733z m123.294 87.034c-2.164 0-4.335-0.254-6.49-0.784l-128.89-24.646c-17.375-4.344-28.734-21.38-24.98-37.333l0.022-1.908c0.991-7.93 5.736-15.341 13.019-20.332 7.516-5.15 16.5-6.947 24.66-4.934l128.891 24.647c8.08 2.02 15.44 7.115 20.191 13.978 4.96 7.166 6.656 15.444 4.79 23.356v1.904l-0.088 0.354c-3.783 15.13-17.191 25.697-31.125 25.698zM109.171 826.02l128.885 24.645c12.833 3.208 26.674-6.035 30.406-20.224v-1.884l0.088-0.355c1.586-6.337 0.228-13.05-3.822-18.899-3.927-5.67-9.998-9.887-16.67-11.576L119.172 773.08c-6.535-1.634-13.805-0.158-19.945 4.05-5.826 3.993-9.63 9.813-10.46 15.992v2.067l-0.087 0.355c-3.227 12.91 6.152 26.848 20.491 30.475z m543.005-338.06H373.723c-15.154 0-26.52-11.366-26.52-26.52v-5.683c0-15.154 11.366-26.52 26.52-26.52h278.453c15.153 0 26.519 11.366 26.519 26.52v5.683c-0.001 15.154-11.366 26.52-26.52 26.52z m0 4.95H373.722c-17.94 0-31.47-13.53-31.47-31.47v-5.682c0-17.941 13.53-31.47 31.47-31.47h278.454c17.94 0 31.47 13.53 31.47 31.47v5.682c-0.002 17.94-13.53 31.47-31.47 31.47z m-278.454-58.722c-12.498 0-21.57 9.071-21.57 21.569v5.682c0 12.498 9.072 21.57 21.57 21.57h278.454c12.497 0 21.568-9.072 21.569-21.57v-5.683c0-12.498-9.072-21.57-21.57-21.57H373.723v0.002z m111.76 258.348v-210.26c0-15.154 11.366-26.52 26.52-26.52h5.682c15.154 0 26.52 11.366 26.52 26.52v212.155c0 15.153-11.366 26.519-26.52 26.519h-7.577c-13.26-1.895-24.624-13.26-24.624-28.414z m32.202 33.365l-8.276-0.05c-16.462-2.353-28.876-16.675-28.876-33.315V482.277c0-17.941 13.53-31.47 31.47-31.47h5.682c17.941 0 31.47 13.53 31.47 31.47v212.155c0 17.94-13.529 31.469-31.47 31.469z m-7.207-9.9h7.207c12.499 0 21.57-9.072 21.57-21.57V482.278c0-12.498-9.072-21.569-21.57-21.569h-5.682c-12.499 0-21.569 9.071-21.569 21.569v210.26c0 11.632 8.593 21.66 20.044 23.464z m141.699-95.445H373.723c-15.154 0-26.52-11.365-26.52-26.519v-5.683c0-15.154 11.366-26.52 26.52-26.52h278.453c15.153 0 26.519 11.366 26.519 26.52v5.683c-0.001 15.154-11.366 26.52-26.52 26.52z m0 4.95H373.722c-17.94 0-31.47-13.529-31.47-31.469v-5.683c0-17.941 13.53-31.47 31.47-31.47h278.454c17.94 0 31.47 13.53 31.47 31.47v5.683c-0.002 17.94-13.53 31.47-31.47 31.47z m-278.454-58.722c-12.498 0-21.57 9.071-21.57 21.569v5.683c0 12.499 9.072 21.569 21.57 21.569h278.454c12.497 0 21.568-9.071 21.569-21.569v-5.683c0-12.499-9.072-21.57-21.57-21.57H373.723z" p-id="32041" fill="#8b8b8b"></path></svg>