<?xml version="1.0" standalone="no"?><!DOCTYPE svg PUBLIC "-//W3C//DTD SVG 1.1//EN" "http://www.w3.org/Graphics/SVG/1.1/DTD/svg11.dtd"><svg t="1622898856147" class="icon" viewBox="0 0 1024 1024" version="1.1" xmlns="http://www.w3.org/2000/svg" p-id="8582" xmlns:xlink="http://www.w3.org/1999/xlink" width="200" height="200"><defs><style type="text/css"></style></defs><path d="M554.46 839.42a50.33 50.33 0 0 1-20-4.17 49.62 49.62 0 0 1-30-44.14L503 744H275.53a114.4 114.4 0 0 1-114.28-114.26V298.86a114.4 114.4 0 0 1 114.28-114.28h472.94a114.4 114.4 0 0 1 114.28 114.28v330.88A114.4 114.4 0 0 1 748.47 744h-36.13a81.34 81.34 0 0 0-53.86 20.32L587.24 827a49.66 49.66 0 0 1-32.78 12.42zM275.53 254.66a44.28 44.28 0 0 0-44.21 44.21v330.87a44.28 44.28 0 0 0 44.21 44.21H514a58.49 58.49 0 0 1 58.72 56.8l0.48 15.26 39-34.35a151.92 151.92 0 0 1 100.12-37.71h36.13a44.28 44.28 0 0 0 44.21-44.21V298.86a44.28 44.28 0 0 0-44.21-44.21z" fill="#2c2c2c" p-id="8583"></path><path d="M331.99 458.59m-42.28 0a42.28 42.28 0 1 0 84.56 0 42.28 42.28 0 1 0-84.56 0Z" fill="#2c2c2c" p-id="8584"></path><path d="M512 458.59m-42.28 0a42.28 42.28 0 1 0 84.56 0 42.28 42.28 0 1 0-84.56 0Z" fill="#2c2c2c" p-id="8585"></path><path d="M692.01 458.59m-42.28 0a42.28 42.28 0 1 0 84.56 0 42.28 42.28 0 1 0-84.56 0Z" fill="#2c2c2c" p-id="8586"></path></svg>