<?xml version="1.0" standalone="no"?><!DOCTYPE svg PUBLIC "-//W3C//DTD SVG 1.1//EN" "http://www.w3.org/Graphics/SVG/1.1/DTD/svg11.dtd"><svg t="1623033634543" class="icon" viewBox="0 0 1024 1024" version="1.1" xmlns="http://www.w3.org/2000/svg" p-id="2746" xmlns:xlink="http://www.w3.org/1999/xlink" width="200" height="200"><defs><style type="text/css"></style></defs><path d="M400.11264 271.72864c-63.93344 63.93856-159.83616 63.93856-223.77472 0-63.93344-63.93344-63.93344-159.84128 0-223.77472 63.93856-63.93344 159.84128-63.93344 223.77472 0 63.94368 63.93856 63.94368 159.8464 0 223.77472z m159.83616 495.52384c0 53.9392-45.952 93.91104-139.85792 117.87264-93.91104 21.98528-185.81504 21.98528-279.72096 0C46.45888 861.16352 0.50688 821.1968 0.50688 767.25248c0-241.77152 121.8816-383.62112 279.72096-383.62112 157.83936-0.00512 279.72096 141.85472 279.72096 383.62112z m79.92832-371.6352c-63.94368-63.93344-63.94368-159.84128 0-223.77984 63.93344-63.93856 159.84128-63.93856 223.77984 0 63.92832 63.93856 63.92832 159.8464 0 223.77984-63.94368 63.93856-159.8464 63.93856-223.77984 0z m103.88992 111.88736c157.85472 0 279.72608 141.86496 279.72608 383.62112 0 45.96224-35.96288 81.92512-105.89184 105.90208-69.92384 23.98208-145.85344 31.96928-231.77216 23.98208-83.92192-7.99744-145.85856-27.97568-185.82016-61.94688 103.89504-41.95328 155.84768-105.90208 155.84768-191.80544 0-81.92-11.99104-157.84448-35.95776-223.77984 37.95456-23.98208 79.91296-35.97312 123.86816-35.97312z" p-id="2747" fill="#8b8b8b"></path></svg>