<?xml version="1.0" standalone="no"?><!DOCTYPE svg PUBLIC "-//W3C//DTD SVG 1.1//EN" "http://www.w3.org/Graphics/SVG/1.1/DTD/svg11.dtd"><svg t="1624114672131" class="icon" viewBox="0 0 1024 1024" version="1.1" xmlns="http://www.w3.org/2000/svg" p-id="7312" xmlns:xlink="http://www.w3.org/1999/xlink" width="200" height="200"><defs><style type="text/css"></style></defs><path d="M289.372573 440.827007m-57.478086 0a56.169 56.169 0 1 0 114.956172 0 56.169 56.169 0 1 0-114.956172 0Z" p-id="7313" fill="#ffffff"></path><path d="M721.701023 398.551158c-113.921609 0-139.758044 82.538855-156.857491 137.171126-12.961196 41.441854-20.547988 59.892065-38.912242 62.85249-37.47552 5.978155-65.754586-2.499937-98.459452-12.328793-25.462928-7.673773-51.78748-15.60542-83.228563-16.381086-110.473067-2.873444-162.375158 158.093645-164.502611 164.933423-4.713348 15.145955 3.764744 31.210839 18.910699 35.924187 2.844791 0.8913 5.719258 1.322112 8.535397 1.322112 12.242835 0 23.594371-7.902994 27.38879-20.203134 10.892071-34.831296 51.183729-124.526131 106.880239-124.526131 0.430812 0 0.862647 0 1.293459 0.028653 23.738657 0.575098 45.321208 7.070023 68.139913 13.938454 34.515095 10.316973 73.571622 22.071691 124.123972 14.024411 55.380308-8.851599 71.646783-60.72606 84.665285-102.397135 18.795065-60.065004 33.796734-96.879468 102.023628-96.879468 15.892969 0 28.738531-12.875239 28.738531-28.738531S737.593991 398.551158 721.701023 398.551158z" p-id="7314" fill="#ffffff"></path><path d="M744.015238 235.412614 168.848593 235.412614c-58.081837 0-105.35756 47.275723-105.35756 105.35756l0 447.40175c0 58.081837 47.275723 105.35756 105.35756 105.35756l575.167668 0c58.081837 0 105.35756-47.275723 105.35756-105.35756L849.373821 340.769151C849.372797 282.688337 802.097074 235.412614 744.015238 235.412614zM791.894711 788.1709c0 26.411533-21.467941 47.879474-47.879474 47.879474L168.848593 836.050374c-26.38288 0-47.879474-21.467941-47.879474-47.879474L120.969119 340.769151c0-26.38288 21.496593-47.879474 47.879474-47.879474l575.167668 0c26.411533 0 47.879474 21.496593 47.879474 47.879474L791.895735 788.1709z" p-id="7315" fill="#ffffff"></path><path d="M853.509001 128.477117 278.342356 128.477117c-54.021358 0-98.686626 40.899502-104.668875 93.350085l58.31822 0c5.347798-20.59813 24.113187-35.871999 46.350654-35.871999l575.167668 0c26.411533 0 47.879474 21.496593 47.879474 47.879474l0 437.168688c0 23.735587-17.342993 43.469024-40.026622 47.224558l0 57.839313c54.429657-4.031826 97.504708-49.624211 97.504708-105.064894L958.867584 233.833653C958.86656 175.75284 911.590837 128.477117 853.509001 128.477117z" p-id="7316" fill="#ffffff"></path></svg>