<?xml version="1.0" standalone="no"?><!DOCTYPE svg PUBLIC "-//W3C//DTD SVG 1.1//EN" "http://www.w3.org/Graphics/SVG/1.1/DTD/svg11.dtd"><svg t="1624114719052" class="icon" viewBox="0 0 1024 1024" version="1.1" xmlns="http://www.w3.org/2000/svg" p-id="8204" xmlns:xlink="http://www.w3.org/1999/xlink" width="200" height="200"><defs><style type="text/css"></style></defs><path d="M243.2 166.912c-42.496 0-76.8 34.304-76.8 76.8v347.136c-32.256 52.224-84.48 50.688-115.2 0V128c0-42.496 34.816-76.8 76.8-76.8h653.312c52.736 32.768 51.2 85.504 0 115.712H243.2z" fill="#ffffff" p-id="8205"></path><path d="M896 243.712H320c-42.496 0-76.8 34.304-76.8 76.8V783.36c0 42.496 34.304 76.8 76.8 76.8h157.184l1.024 66.56c1.024 42.496 30.208 58.368 66.048 35.84l160.768-102.4H896c42.496 0 76.8-34.304 76.8-76.8V320.512c0-42.496-34.304-76.8-76.8-76.8z m-26.624 428.032c0 44.544-35.84 80.384-80.384 80.384h-114.176l-83.968 53.76-0.512-13.312c-0.512-22.016-18.944-39.936-40.96-39.936H427.52c-45.056 0-80.896-35.84-80.896-80.384V430.08v-0.512c0-44.544 35.84-80.384 80.384-80.384H788.48c44.544 0 80.384 35.84 80.384 80.384v242.176z" fill="#ffffff" p-id="8206"></path></svg>