<?xml version="1.0" standalone="no"?><!DOCTYPE svg PUBLIC "-//W3C//DTD SVG 1.1//EN" "http://www.w3.org/Graphics/SVG/1.1/DTD/svg11.dtd"><svg t="1622799224192" class="icon" viewBox="0 0 1025 1024" version="1.1" xmlns="http://www.w3.org/2000/svg" p-id="8162" xmlns:xlink="http://www.w3.org/1999/xlink" width="200.1953125" height="200"><defs><style type="text/css"></style></defs><path d="M511.974401 0c-282.75527 0-511.974401 229.219131-511.974401 511.974401 0 282.757318 229.219131 511.974401 511.974401 511.974401 282.757318 0 511.974401-229.217083 511.974401-511.974401C1023.948803 229.219131 794.729672 0 511.974401 0zM805.63063 379.174385 474.510162 710.296901c0 0-0.004096 0.004096-0.010239 0.010239-15.265029 15.269125-38.541433 17.652877-56.31104 7.157402-3.290971-1.945503-6.393536-4.333351-9.219635-7.157402-0.002048-0.004096-0.006144-0.006144-0.006144-0.006144l-190.642884-190.642884c-18.095223-18.095223-18.095223-47.4375 0-65.536819 18.095223-18.095223 47.4375-18.095223 65.532723 0l157.884714 157.884714 298.362298-298.362298c18.097271-18.095223 47.439548-18.095223 65.534771 0C823.725854 331.738933 823.725854 361.079162 805.63063 379.174385z" fill="#16d1e7" p-id="8163"></path></svg>