<?xml version="1.0" standalone="no"?><!DOCTYPE svg PUBLIC "-//W3C//DTD SVG 1.1//EN" "http://www.w3.org/Graphics/SVG/1.1/DTD/svg11.dtd"><svg t="1624114616900" class="icon" viewBox="0 0 1024 1024" version="1.1" xmlns="http://www.w3.org/2000/svg" p-id="6368" xmlns:xlink="http://www.w3.org/1999/xlink" width="200" height="200"><defs><style type="text/css"></style></defs><path d="M946.801778 470.926222a411.306667 411.306667 0 0 0-120.888889-289.223111 411.306667 411.306667 0 0 0-291.84-120.945778 35.84 35.84 0 0 0-23.324445 8.647111 35.953778 35.953778 0 0 0-13.141333 27.818667V473.884444a35.84 35.84 0 0 0 8.760889 23.495112c6.826667 8.419556 17.066667 13.255111 27.875556 13.255111l376.775111 0.284444a35.896889 35.896889 0 0 0 35.84-40.049778z m-73.784889-32.028444h-303.388445V134.656a341.333333 341.333333 0 0 1 303.388445 304.241778z" p-id="6369" fill="#ffffff"></path><path d="M883.313778 565.816889a36.010667 36.010667 0 0 0-41.984 28.899555 353.109333 353.109333 0 0 1-347.420445 288.540445A353.28 353.28 0 1 1 428.373333 182.727111a36.010667 36.010667 0 1 0-13.255111-70.769778 425.358222 425.358222 0 0 0-221.866666 718.791111 423.879111 423.879111 0 0 0 300.714666 124.586667 423.822222 423.822222 0 0 0 273.578667-99.612444 426.097778 426.097778 0 0 0 144.668444-247.921778 36.010667 36.010667 0 0 0-28.842666-41.984z" p-id="6370" fill="#ffffff"></path></svg>