<?xml version="1.0" standalone="no"?><!DOCTYPE svg PUBLIC "-//W3C//DTD SVG 1.1//EN" "http://www.w3.org/Graphics/SVG/1.1/DTD/svg11.dtd"><svg t="1622796223851" class="icon" viewBox="0 0 1024 1024" version="1.1" xmlns="http://www.w3.org/2000/svg" p-id="29787" xmlns:xlink="http://www.w3.org/1999/xlink" width="200" height="200"><defs><style type="text/css"></style></defs><path d="M512 479.999911c-54.20199 0-98.133982-42.975992-98.133982-95.999982s43.931992-95.999982 98.133982-95.999982 98.133982 42.975992 98.133982 95.999982-43.931992 95.999982-98.133982 95.999982z m0-255.999953c-90.314983 0-163.55597 71.615987-163.55597 159.999971S421.685017 543.999899 512 543.999899s163.55597-71.615987 163.55597-159.99997S602.314983 223.999958 512 223.999958z m0 703.99987c-54.39799 0.288-327.109939-410.207924-327.109939-543.999899 0-176.703967 146.446973-319.999941 327.109939-319.999941s327.109939 143.295973 327.109939 319.999941c0 131.999976-273.561949 544.287899-327.109939 543.999899z m0-927.999828C295.22404 0 119.467073 171.935968 119.467073 383.999929c0 160.57597 327.273939 640.351881 392.532927 639.999881 64.243988 0.352 392.532927-481.600911 392.532927-639.999881C904.532927 171.935968 728.77596 0 512 0z" fill="#148d96" p-id="29788"></path></svg>
