<?xml version="1.0" standalone="no"?><!DOCTYPE svg PUBLIC "-//W3C//DTD SVG 1.1//EN" "http://www.w3.org/Graphics/SVG/1.1/DTD/svg11.dtd"><svg t="1622794745936" class="icon" viewBox="0 0 1024 1024" version="1.1" xmlns="http://www.w3.org/2000/svg" p-id="10728" xmlns:xlink="http://www.w3.org/1999/xlink" width="200" height="200"><defs><style type="text/css"></style></defs><path d="M428.8 128V32c0-6.4 9.6-9.6 12.8-6.4l150.4 150.4c12.8 12.8 12.8 32 0 41.6l-150.4 150.4c-6.4 6.4-12.8 0-12.8-6.4V224c-192 22.4-336 208-291.2 416 19.2 86.4 73.6 166.4 150.4 211.2 70.4 41.6 150.4 57.6 227.2 48 25.6-3.2 48 12.8 54.4 35.2 6.4 28.8-9.6 57.6-38.4 60.8-60.8 9.6-124.8 3.2-185.6-12.8C160 928 35.2 755.2 35.2 563.2 35.2 336 208 150.4 428.8 128z" p-id="10729" fill="#ffffff"></path><path d="M336 560l284.8-284.8c19.2-19.2 51.2-19.2 70.4 0l284.8 284.8c19.2 19.2 19.2 51.2 0 67.2l-284.8 284.8c-19.2 19.2-51.2 19.2-67.2 0l-284.8-284.8c-19.2-19.2-19.2-48-3.2-67.2z" p-id="10730" fill="#ffffff"></path></svg>
