<?xml version="1.0" standalone="no"?><!DOCTYPE svg PUBLIC "-//W3C//DTD SVG 1.1//EN" "http://www.w3.org/Graphics/SVG/1.1/DTD/svg11.dtd"><svg t="1622798074133" class="icon" viewBox="0 0 1024 1024" version="1.1" xmlns="http://www.w3.org/2000/svg" p-id="7312" xmlns:xlink="http://www.w3.org/1999/xlink" width="200" height="200"><defs><style type="text/css"></style></defs><path d="M512 1002.666667a36.864 36.864 0 0 1-29.696-14.933334l-74.24-100.864C170.752 846.165333 0 672.554667 0 469.248 0 233.984 229.717333 42.666667 512 42.666667s512 191.402667 512 426.581333c0 203.306667-170.581333 376.832-408.106667 417.536l-74.197333 100.864A36.693333 36.693333 0 0 1 512 1002.666667z m0-890.282667c-242.005333 0-438.912 159.488-438.912 355.498667 0 172.202667 152.021333 319.274667 361.216 349.568 9.813333 1.408 18.688 6.698667 24.405333 14.506666L512 904.362667l53.333333-72.533334a36.565333 36.565333 0 0 1 24.362667-14.464c209.322667-30.293333 361.216-177.408 361.216-349.610666 0-195.968-196.906667-355.413333-438.912-355.413334z m-212.394667 407.978667c-30.421333 0-55.210667-23.978667-55.210666-53.589334s24.704-53.589333 55.210666-53.589333c30.506667 0 55.210667 23.978667 55.210667 53.589333s-24.746667 53.589333-55.210667 53.589334z m386.474667 0c-30.378667 0-55.168-23.978667-55.168-53.589334s24.704-53.589333 55.168-53.589333c30.421333 0 55.210667 23.978667 55.210667 53.589333-0.085333 29.610667-24.789333 53.589333-55.210667 53.589334z m-193.194667 0c-30.378667 0-55.168-23.978667-55.168-53.589334s24.704-53.589333 55.168-53.589333c30.421333 0 55.210667 23.978667 55.210667 53.589333s-24.789333 53.589333-55.210667 53.589334z" p-id="7313" fill="#8b8b8b"></path></svg>