<?xml version="1.0" standalone="no"?><!DOCTYPE svg PUBLIC "-//W3C//DTD SVG 1.1//EN" "http://www.w3.org/Graphics/SVG/1.1/DTD/svg11.dtd"><svg t="1624026217344" class="icon" viewBox="0 0 1024 1024" version="1.1" xmlns="http://www.w3.org/2000/svg" p-id="6681" xmlns:xlink="http://www.w3.org/1999/xlink" width="200" height="200"><defs><style type="text/css"></style></defs><path d="M237 733v10.1c8-3.9 17.6-8.1 28.7-12.2 35.7-13.3 74.6-21.2 115.8-21.2 55.4 0 103.2 11.9 182.4 40 77.4 27.4 93.2 32.3 121.9 35.7 52.5 6.2 101.2 3 143.8-5.9 9.3-2 17.5-4 24.5-6.1 4-1.2 6.6-2 7.7-2.4l2.1-0.7c2.5-0.7 6.2-5.6 6.2-8.7V756c-10.1 3.5-85 27.5-187.5 15.5-85-10-188.8-75.5-301.1-75.5-74.3 0-130.6 29.1-144.5 37z m619.4-264.9v-28.4c9.8-2.6 15-4.5 15-4.5 14.5-4.2 26.3 4.8 26.3 19.9v306.7c0 15.2-11.7 31.2-26.4 35.2 0 0-78.4 28.8-188.7 15.9-85-10-188.8-75.5-301.1-75.5-86 0-147.9 39-147.9 39-13.4 7.1-24.2 0.4-24.2-14.7v-77c4-1.9 8.6-4 13.8-6.1v41.8c0 4.8-0.2 4.7 3.1 3.1 2.3-1.4 6.3-3.8 12.1-6.7 9.4-4.8 20.1-9.6 32.1-14.1 34.2-12.7 71.6-20.4 111-20.4 53.3 0 100 11.6 177.8 39.2 78.7 27.9 94.7 32.9 124.9 36.4 54.1 6.3 104.3 3.1 148.2-6.1 9.7-2 18.2-4.2 25.6-6.3 4.3-1.3 7.2-2.2 9.6-3.1 8.5-2.4 16.3-12.8 16.3-22v-224c0-6-3-8.3-7.8-7-4.3 1.6-11 3.7-19.8 5.9v-14.2c7-1.9 11.7-3.4 13.8-4.1v-12.4c-3.9 1-8.5 2.2-13.7 3.5z" p-id="6682" fill="#ffffff"></path><path d="M195.7 650.5v10.1c8-3.9 17.6-8.1 28.7-12.2 35.7-13.3 74.6-21.2 115.8-21.2 55.4 0 103.2 11.9 182.4 40 77.4 27.4 93.2 32.3 121.9 35.7 52.5 6.2 101.2 3 143.8-5.9 9.3-2 17.5-4 24.5-6.1 4-1.2 6.6-2 7.7-2.4l2.1-0.7c2.5-0.7 6.2-5.6 6.2-8.7v-5.7c-10.1 3.5-85 27.5-187.5 15.5-85-10-188.8-75.5-301.1-75.5-74.3 0-130.6 29.1-144.5 37.1z m619.4-265v-28.4c9.8-2.6 15-4.5 15-4.5 14.5-4.2 26.3 4.8 26.3 19.9v306.7c0 15.2-11.7 31.2-26.4 35.2 0 0-78.4 28.8-188.7 15.9-85-10-188.8-75.5-301.1-75.5-86 0-147.9 39-147.9 39-13.4 7.1-24.2 0.4-24.2-14.7v-77c4-1.9 8.6-4 13.8-6.1v41.8c0 4.8-0.2 4.7 3.1 3.1 2.3-1.4 6.3-3.8 12.1-6.7 9.4-4.8 20.1-9.6 32.1-14.1 34.2-12.7 71.6-20.4 111-20.4 53.3 0 100 11.6 177.8 39.2 78.7 27.9 94.7 32.9 124.9 36.4 54.1 6.3 104.3 3.1 148.2-6.1 9.7-2 18.2-4.2 25.6-6.3 4.3-1.3 7.2-2.2 9.6-3.1 8.5-2.4 16.3-12.8 16.3-22v-224c0-6-3-8.3-7.8-7-4.3 1.6-11 3.7-19.8 5.9v-14.2c7-1.9 11.7-3.4 13.8-4.1V382c-3.9 1-8.5 2.2-13.7 3.5z" p-id="6683" fill="#ffffff"></path><path d="M483.6 485.6c5-4.8 8-10.6 7-19.3 0-4.8 0-7.7-2-10.6-1-2.9-3-4.8-6-6.7-3-1.9-6-3.9-9-4.8-3-1-5-1.9-8-2.9v51.1c8 0 13-2.9 18-6.8z m-30.1-74.2h-1V368c-7 0-12.1 1.9-16.1 4.8-4 2.9-6 8.7-6 16.4 0 3.9 0 6.7 2 8.7 2 2.9 4 4.8 6 6.7 2 1 5 2.9 8 3.9s4.1 2 7.1 2.9z m47.2 18.3c5 2.9 9 7.7 13.1 12.5 3 5.8 4 12.5 4 20.2 0 7.7-1 15.4-4 21.2-3 6.7-6 11.6-11.1 15.4-4 4.8-10.1 7.7-16.1 9.6-7 1.9-12.1 3.9-19.1 3.9V527h-13.1v-16.4c-8 0-13.1-1.9-20.1-3.9-7-1.9-12.1-5.8-17.1-9.6-5-3.9-8-9.6-11.1-15.4-3-5.8-4-13.5-4-21.2h25.1c-1 9.6 2 17.3 6 23.1 4 5.8 10.1 8.7 20.1 8.7v-53c-6-1.9-10.1-3.9-16.1-5.8-6-1.9-11.1-4.8-16.1-8.7-5-3.9-9-7.7-12.1-13.5-3-5.8-4-12.5-4-20.2 0-6.7 1-12.5 4-18.3 3-5.8 6-9.6 11.1-13.5 4-3.9 10.1-5.8 16.1-7.7 6-1.9 10.1-2.9 17.1-2.9v-14.5h13.1v15.4c7 0 11.1 1 17.1 2.9 6 1.9 11.1 3.9 15.1 7.7 4 3.9 7 7.7 10.1 13.5 3 4.8 4 11.6 4 18.3h-25.1c0-7.7-2-13.5-6-17.3-3-3.9-7-5.8-15.1-5.8v46.2c6 1 11.1 3.9 17.1 5.8 7.1 2.1 12.1 5 17.1 8.8z m-360-98.6v224c0 4.8-0.2 4.7 3.1 3.1 2.3-1.4 6.3-3.8 12.1-6.7 9.4-4.8 20.1-9.6 32.1-14.1 34.2-12.7 71.6-20.4 111-20.4 53.3 0 100 11.6 177.8 39.2 78.7 27.9 94.7 32.9 124.9 36.4 54.1 6.3 104.3 3.1 148.2-6.1 9.7-2 18.2-4.2 25.6-6.3 4.3-1.3 7.2-2.2 9.6-3.1 8.5-2.4 16.3-12.8 16.3-22v-224c0-6-3-8.3-7.8-7-6.8 2.5-19.1 6.1-36.4 9.6-45.9 9.4-99.5 12.5-158.8 5.7-32.8-3.8-49.6-8.9-131.5-37.1-75.7-26.1-120-36.9-168-36.9-35.9 0-70.1 7-101.4 18.6-10.9 4.1-20.7 8.4-29.2 12.8-5 2.6-8.3 4.5-11 6.1-8.7 4.6-16.6 18-16.6 28.2z m-13.8-41.3c0-15.2 10.7-33.4 24.2-40.3 0 0 61.8-39 147.9-39 109.5 0 217.2 64.4 301.1 74 113.9 13.1 188.8-14.6 188.8-14.6 14.5-4.2 26.3 4.8 26.3 19.9v306.7c0 15.2-11.7 31.2-26.4 35.2 0 0-78.4 28.8-188.7 15.9-85-10-188.8-75.5-301.1-75.5-86 0-147.9 39-147.9 39-13.4 7.1-24.2 0.4-24.2-14.7V289.8z m27.6-1c14-8 70.2-37 144.5-37 109.5 0 217.2 64.4 301.1 74 105.4 12.1 177.4-10.7 187.5-14.1v-12.4c-7.2 2.1-16.4 4.4-27.6 6.7-47.3 9.7-102.3 12.9-163.1 5.9-34.3-3.9-51.2-9.1-134.4-37.7C388.1 248.5 345 238 299 238c-34.1 0-66.7 6.7-96.6 17.8-10.4 3.9-19.7 8-27.7 12.1-4.6 2.4-7.6 4.1-8.9 4.9l-2.2 1.3c-3.8 1.9-8.5 9.5-9.1 14.7z m-0.1 279.1V578c8-3.9 17.6-8.1 28.7-12.2 35.7-13.3 74.6-21.2 115.8-21.2 55.4 0 103.2 11.9 182.4 40 77.4 27.4 93.2 32.3 121.9 35.7 52.5 6.2 101.2 3 143.8-5.9 9.3-2 17.5-4 24.5-6.1 4-1.2 6.6-2 7.7-2.4l2.1-0.7c2.5-0.7 6.2-5.6 6.2-8.7v-5.7c-10.1 3.5-85 27.5-187.5 15.5-85-10-188.8-75.5-301.1-75.5-74.3 0-130.6 29.1-144.5 37.1z" p-id="6684" fill="#ffffff"></path></svg>