<?xml version="1.0" standalone="no"?><!DOCTYPE svg PUBLIC "-//W3C//DTD SVG 1.1//EN" "http://www.w3.org/Graphics/SVG/1.1/DTD/svg11.dtd"><svg t="1622897244328" class="icon" viewBox="0 0 1024 1024" version="1.1" xmlns="http://www.w3.org/2000/svg" p-id="1875" xmlns:xlink="http://www.w3.org/1999/xlink" width="200" height="200"><defs><style type="text/css"></style></defs><path d="M513.05503 33.667879c264.192 0 478.332121 214.171152 478.332122 478.332121 0 264.16097-214.140121 478.332121-478.332122 478.332121-264.16097 0-478.332121-214.171152-478.332121-478.332121 0-264.16097 214.171152-478.332121 478.332121-478.332121z" fill="#CFCFCF" opacity=".45" p-id="1876"></path><path d="M435.913697 316.757333a40.029091 40.029091 0 0 0-39.998061 40.122182v319.984485c0 7.788606 2.265212 15.422061 6.516364 21.938424 12.070788 18.556121 36.83297 23.769212 55.32703 11.667394l241.167515-158.130424a42.449455 42.449455 0 0 0 0-70.935273l-241.167515-158.099394a39.873939 39.873939 0 0 0-21.845333-6.516363z" fill="#CDCDCD" p-id="1877"></path></svg>