<?xml version="1.0" standalone="no"?><!DOCTYPE svg PUBLIC "-//W3C//DTD SVG 1.1//EN" "http://www.w3.org/Graphics/SVG/1.1/DTD/svg11.dtd"><svg t="1623123131284" class="icon" viewBox="0 0 1024 1024" version="1.1" xmlns="http://www.w3.org/2000/svg" p-id="3918" xmlns:xlink="http://www.w3.org/1999/xlink" width="200" height="200"><defs><style type="text/css"></style></defs><path d="M337.834667 341.333333l147.2-120.021333A42.666667 42.666667 0 0 1 554.666667 254.378667v516.053333a42.666667 42.666667 0 0 1-69.632 33.066667L336.810667 682.666667H213.333333a85.333333 85.333333 0 0 1-85.333333-85.333334v-170.666666a85.333333 85.333333 0 0 1 85.333333-85.333334h124.501334z m433.792 110.293334l60.330666-60.373334a42.666667 42.666667 0 0 1 60.330667 60.373334L832 511.957333l60.330667 60.330667a42.666667 42.666667 0 1 1-60.330667 60.330667l-60.330667-60.330667-60.330666 60.330667a42.666667 42.666667 0 0 1-60.373334-60.330667l60.373334-60.330667-60.373334-60.330666a42.666667 42.666667 0 0 1 60.373334-60.373334l60.330666 60.373334z" fill="#eaeaea" p-id="3919"></path></svg>
