<?xml version="1.0" standalone="no"?><!DOCTYPE svg PUBLIC "-//W3C//DTD SVG 1.1//EN" "http://www.w3.org/Graphics/SVG/1.1/DTD/svg11.dtd"><svg t="1623123271633" class="icon" viewBox="0 0 1024 1024" version="1.1" xmlns="http://www.w3.org/2000/svg" p-id="7652" xmlns:xlink="http://www.w3.org/1999/xlink" width="200" height="200"><defs><style type="text/css"></style></defs><path d="M552.06656 208.27392l-1.36704-0.57856a34.5344 34.5344 0 0 0-13.504-2.73664c-7.424 0-14.5152 2.3168-20.47488 6.67648l-198.0032 148.69248-158.57664-0.58368c-8.17408 0-16.0512 2.97216-22.19776 8.37632a26.8032 26.8032 0 0 0-9.20576 19.98336L128 635.7376c0 7.54944 3.25632 14.67136 9.14688 20.02944a33.41056 33.41056 0 0 0 22.20032 8.43776l160.38144-0.00256 197.03296 148.16768a34.63168 34.63168 0 0 0 20.50816 6.6688c4.64896 0 9.18272-0.91136 13.45536-2.70592 11.03104-4.71552 18.15552-14.79936 18.15552-25.69472V233.31328c0-10.45504-6.5536-20.13696-16.81408-25.03936zM772.38528 279.73376c-5.18912-2.87744-11.18976-4.39808-17.35424-4.39808-11.01056 0-21.17888 4.72576-27.2 12.62848-4.35456 5.74208-5.9904 12.62848-4.60544 19.38688 1.51552 7.38304 6.58688 14.01088 13.888 18.1632 0.94208 0.51968 94.37952 53.58848 94.37952 186.50112 0 132.82816-89.41056 186.14272-90.32448 186.67008-7.41376 4.25728-12.3136 10.7008-13.7856 18.14784-1.34144 6.7968 0.38656 13.72672 4.82816 19.456a34.04288 34.04288 0 0 0 26.30144 12.37504l0.704-0.01024c6.44352 0 12.6848-1.62048 18.04032-4.67968C782.1056 741.17888 896 673.71264 896 511.97696c0-163.01568-118.5536-229.48352-123.61472-232.2432z" p-id="7653" fill="#eaeaea"></path><path d="M777.0496 509.69088c0-106.86976-91.93728-145.58464-95.8464-147.1744a37.56288 37.56288 0 0 0-14.16704-2.72896c-12.77184 0-24.64512 6.35392-30.2464 16.1792-3.4944 6.17472-4.19328 13.2224-1.97376 19.85024 2.5728 7.67488 8.86528 14.16704 17.27744 17.80992 2.36288 1.04192 57.89696 26.30144 57.89696 96.1024 0 75.43808-53.23776 100.48512-53.824 100.75136-8.38912 3.60448-14.65344 10.07872-17.18016 17.76128-2.2144 6.72768-1.42336 13.87776 2.22976 20.12416 5.73952 9.77664 17.30304 15.84896 30.1696 15.84896 5.27872 0 10.48576-1.04704 15.05792-3.03616 3.6992-1.6 90.60608-40.49664 90.60608-151.488z" p-id="7654" fill="#eaeaea"></path></svg>
