<?xml version="1.0" standalone="no"?><!DOCTYPE svg PUBLIC "-//W3C//DTD SVG 1.1//EN" "http://www.w3.org/Graphics/SVG/1.1/DTD/svg11.dtd"><svg t="1624115710111" class="icon" viewBox="0 0 1024 1024" version="1.1" xmlns="http://www.w3.org/2000/svg" p-id="9098" xmlns:xlink="http://www.w3.org/1999/xlink" width="200" height="200"><defs><style type="text/css"></style></defs><path d="M679.42333 746.853461l83.993264-396.004816c3.430386-16.742333 1.433594-28.748685-5.990376-35.993456-7.42397-7.244771-17.228731-8.575966-29.439882-3.993584L234.292311 501.145643c-11.059156 4.198383-18.585526 8.959964-22.57911 14.284743-3.993584 5.324779-4.479982 10.367959-1.433594 15.12954 3.071988 4.761581 9.139163 8.473566 18.303927 11.161555l126.284295 39.423842 293.118827-184.575261c8.012768-5.324779 14.105544-6.476774 18.303927-3.430387 2.662389 1.919992 1.894392 4.761581-2.303991 8.575966l-237.131851 214.271143-9.139164 130.303479c8.755165 0 17.331131-4.198383 25.702297-12.56955l61.721353-59.442962 127.999488 94.284423c24.396702 13.721545 39.807841 6.476774 46.284615-21.708713zM1023.997952 512c0 69.324523-13.516746 135.628257-40.575838 198.860005-27.033492 63.231747-63.410946 117.708329-109.132363 163.429746-45.721417 45.695817-100.197999 82.098872-163.429746 109.132363A500.529198 500.529198 0 0 1 512 1023.997952c-69.324523 0-135.628257-13.516746-198.860005-40.575838-63.231747-27.033492-117.708329-63.410946-163.429746-109.132363-45.695817-45.721417-82.098872-100.197999-109.132363-163.429746A500.529198 500.529198 0 0 1 0.002048 512c0-69.324523 13.516746-135.628257 40.575838-198.860005 27.033492-63.231747 63.436546-117.708329 109.132363-163.429746 45.721417-45.695817 100.197999-82.098872 163.429746-109.132363A500.529198 500.529198 0 0 1 512 0.002048c69.324523 0 135.628257 13.516746 198.860005 40.575838 63.231747 27.033492 117.708329 63.436546 163.429746 109.132363 45.695817 45.721417 82.098872 100.197999 109.132363 163.429746A500.529198 500.529198 0 0 1 1023.997952 512z" p-id="9099" fill="#ffffff"></path></svg>