<?xml version="1.0" standalone="no"?><!DOCTYPE svg PUBLIC "-//W3C//DTD SVG 1.1//EN" "http://www.w3.org/Graphics/SVG/1.1/DTD/svg11.dtd"><svg t="1637822359559" class="icon" viewBox="0 0 1024 1024" version="1.1" xmlns="http://www.w3.org/2000/svg" p-id="7046" xmlns:xlink="http://www.w3.org/1999/xlink" width="200" height="200"><defs><style type="text/css"></style></defs><path d="M866.304 85.504H157.696c-68.096 0-123.392 55.296-123.392 123.392v608.256c0 68.096 55.296 123.392 123.392 123.392h708.608c68.096 0 123.392-55.296 123.392-123.392V208.896c0-68.096-55.296-123.392-123.392-123.392z m55.296 527.36h-275.456c-55.296 0-100.352-45.056-100.352-100.352s45.056-100.352 100.352-100.352H921.6v200.704z m0 204.288c0 30.208-24.576 55.296-55.296 55.296H157.696c-30.208 0-55.296-24.576-55.296-55.296V208.896c0-30.72 24.576-55.296 55.296-55.296h708.608c30.208 0 55.296 24.576 55.296 55.296v135.68h-275.456c-92.672 0-168.448 75.776-168.448 168.448s75.776 168.448 168.448 168.448H921.6v135.68z m-251.392-304.128c0-24.576 19.968-44.544 44.544-44.544 24.576 0 44.544 19.968 44.544 44.544 0 24.576-19.968 44.544-44.544 44.544-24.576-0.512-44.544-19.968-44.544-44.544z" p-id="7047" fill="#707a83"></path></svg>