<svg width="31" height="32" viewBox="0 0 31 32" fill="none" xmlns="http://www.w3.org/2000/svg">
<path d="M24.4171 23.0493L30.9207 29.5252L28.7721 31.6651L22.2699 25.1878C19.8506 27.1194 16.8413 28.17 13.7406 28.1656C6.19675 28.1656 0.0742188 22.0678 0.0742188 14.5545C0.0742188 7.04114 6.19675 0.943359 13.7406 0.943359C21.2844 0.943359 27.407 7.04114 27.407 14.5545C27.4114 17.6427 26.3565 20.6398 24.4171 23.0493ZM21.371 21.9272C23.2981 19.9534 24.3743 17.3076 24.37 14.5545C24.37 8.70472 19.6126 3.96805 13.7406 3.96805C7.86709 3.96805 3.11119 8.70472 3.11119 14.5545C3.11119 20.4027 7.86709 25.1409 13.7406 25.1409C16.5049 25.1452 19.1614 24.0733 21.1432 22.154L21.371 21.9272Z" fill="#6F6F6F"/>
</svg>
