<svg width="47" height="41" viewBox="0 0 47 41" fill="none" xmlns="http://www.w3.org/2000/svg">
<path d="M44.7619 9.18576H47V31.408H44.7619V38.0747C44.7619 38.664 44.5261 39.2293 44.1064 39.646C43.6867 40.0628 43.1174 40.2969 42.5238 40.2969H2.2381C1.64452 40.2969 1.07525 40.0628 0.655523 39.646C0.235799 39.2293 0 38.664 0 38.0747V2.5191C0 1.92973 0.235799 1.3645 0.655523 0.947749C1.07525 0.531001 1.64452 0.296875 2.2381 0.296875H42.5238C43.1174 0.296875 43.6867 0.531001 44.1064 0.947749C44.5261 1.3645 44.7619 1.92973 44.7619 2.5191V9.18576ZM40.2857 31.408H26.8571C23.8892 31.408 21.0429 30.2374 18.9443 28.1536C16.8457 26.0699 15.6667 23.2437 15.6667 20.2969C15.6667 17.35 16.8457 14.5239 18.9443 12.4401C21.0429 10.3564 23.8892 9.18576 26.8571 9.18576H40.2857V4.74132H4.47619V35.8524H40.2857V31.408ZM42.5238 26.9635V13.6302H26.8571C25.0764 13.6302 23.3686 14.3326 22.1094 15.5828C20.8503 16.8331 20.1429 18.5288 20.1429 20.2969C20.1429 22.065 20.8503 23.7607 22.1094 25.0109C23.3686 26.2612 25.0764 26.9635 26.8571 26.9635H42.5238ZM26.8571 18.0747H33.5714V22.5191H26.8571V18.0747Z" fill="#0044BA"/>
</svg>
